<?xml version="1.0" encoding="utf-8"?>
<!-- Generator: Adobe Illustrator 18.1.1, SVG Export Plug-In . SVG Version: 6.00 Build 0)  -->
<!DOCTYPE svg PUBLIC "-//W3C//DTD SVG 1.1//EN" "http://www.w3.org/Graphics/SVG/1.1/DTD/svg11.dtd">
<svg version="1.1" id="Layer_1" xmlns="http://www.w3.org/2000/svg" xmlns:xlink="http://www.w3.org/1999/xlink" x="0px" y="0px"
	 viewBox="0 0 189 273.6" enable-background="new 0 0 189 273.6" xml:space="preserve">
<g>
	<path fill="none" stroke="#000000" stroke-width="0.5" stroke-miterlimit="10" d="M92.6,59.8c0,0-18.7-1.2-29.9,21.5
		S71,173,86.2,193.4c0,0,2.2,2.8,6.2,2.8"/>
	<line fill="none" stroke="#000000" stroke-width="0.5" stroke-miterlimit="10" x1="80.9" y1="62.8" x2="92.7" y2="62.8"/>
	<line fill="none" stroke="#000000" stroke-width="0.5" stroke-miterlimit="10" x1="92.6" y1="77.1" x2="65" y2="77.1"/>
	<path fill="none" stroke="#000000" stroke-width="0.5" stroke-miterlimit="10" d="M92.3,91.7c0.3-0.1-32.5,0-32.5,0"/>
	<line fill="none" stroke="#000000" stroke-width="0.5" stroke-miterlimit="10" x1="68.9" y1="153.7" x2="92.6" y2="153.7"/>
	<polyline fill="none" stroke="#000000" stroke-width="0.5" stroke-miterlimit="10" points="83.7,190.1 56.5,197.1 56,184.5 
		74.3,170.6 	"/>
	<polyline fill="none" stroke="#000000" stroke-width="0.5" stroke-miterlimit="10" points="92.6,170.9 91.4,197.5 92.7,199.7 	"/>
	<path fill="none" stroke="#000000" stroke-width="0.5" stroke-miterlimit="10" d="M92.7,59.8c0,0,18.7-1.2,29.9,21.5
		s-8.3,91.8-23.5,112.2c0,0-2.2,2.8-6.2,2.8"/>
	<line fill="none" stroke="#000000" stroke-width="0.5" stroke-miterlimit="10" x1="104.4" y1="62.8" x2="92.6" y2="62.8"/>
	<line fill="none" stroke="#000000" stroke-width="0.5" stroke-miterlimit="10" x1="92.7" y1="77.1" x2="120.3" y2="77.1"/>
	<path fill="none" stroke="#000000" stroke-width="0.5" stroke-miterlimit="10" d="M93.1,91.7c-0.3-0.1,32.5,0,32.5,0"/>
	<line fill="none" stroke="#000000" stroke-width="0.5" stroke-miterlimit="10" x1="116.4" y1="153.7" x2="92.8" y2="153.7"/>
	<polyline fill="none" stroke="#000000" stroke-width="0.5" stroke-miterlimit="10" points="101.6,190.1 128.9,197.1 129.3,184.5 
		111,170.6 	"/>
	<polyline fill="none" stroke="#000000" stroke-width="0.5" stroke-miterlimit="10" points="92.8,170.9 94,197.5 92.6,199.7 	"/>
</g>
</svg>
