<?xml version="1.0" encoding="utf-8"?>
<!-- Generator: Adobe Illustrator 18.1.1, SVG Export Plug-In . SVG Version: 6.00 Build 0)  -->
<!DOCTYPE svg PUBLIC "-//W3C//DTD SVG 1.1//EN" "http://www.w3.org/Graphics/SVG/1.1/DTD/svg11.dtd">
<svg version="1.1" id="Layer_1" xmlns="http://www.w3.org/2000/svg" xmlns:xlink="http://www.w3.org/1999/xlink" x="0px" y="0px"
	 viewBox="0 0 611.4 819.8" enable-background="new 0 0 611.4 819.8" xml:space="preserve">
<g>
	<path fill="none" stroke="#000000" stroke-width="0.5" stroke-miterlimit="10" d="M540.4,217.6l14.5-10.3c0.9-0.7,1.2-2,0.5-2.9
		l-10.1-14.2l-73,51.8c0,0-1.1,3.8,4.2,12.7c0,0,1.1,2.5-0.9,5.2c0,0-1.3,1.4-1.3,3.1"/>
	<polyline fill="none" stroke="#000000" stroke-width="0.5" stroke-miterlimit="10" points="518.6,287.7 519.5,290.6 496.8,302.3 
		494.6,300.5 489.5,277.5 	"/>
	<path fill="none" stroke="#000000" stroke-width="0.5" stroke-miterlimit="10" d="M503.8,255.3c1.8,2.4,4.8,1.8,4.8,1.8l1.4,1.4
		l9.5,28.2c-2.7,2.4-3.6,5.7-3.6,5.7l-16.1-49.5c0,0-8.4,5.3-13.3,9.8l10,43.4c0,0,3.7-1.6,5.3,3.2"/>
	<path fill="none" stroke="#000000" stroke-width="0.5" stroke-miterlimit="10" d="M510.1,258.5c0,0,0.3-3.9,4.7-5l9-6.4
		c0,0,2.8-4.4,0.7-7.4s-3.9-6.6-0.6-9.5l15.4-10.9c0,0,1.8-0.7,0.8-2.1l-3.9-5.5l-60,42.6"/>
	<path fill="none" stroke="#000000" stroke-width="0.5" stroke-miterlimit="10" d="M516.6,250.7c-2.6,1.8-6.2,1.2-8.1-1.4
		s-1.2-6.2,1.4-8.1l4.6-3.3c2.6-1.8,6.2-1.2,8.1,1.4c1.8,2.6,1.2,6.2-1.4,8.1L516.6,250.7z"/>
	<path fill="none" stroke="#000000" stroke-width="0.5" stroke-miterlimit="10" d="M511.8,240.1c0,0-1.4,7.4,6.6,9.3"/>
	<path fill="none" stroke="#000000" stroke-width="0.5" stroke-miterlimit="10" d="M499.9,242.9l12.3-7.6c0,0,1.6-1.4,0.6-2.7
		c-0.9-1.3-2.2-2.1-4-0.7s-11.2,8.1-11.2,8.1S497.1,242.2,499.9,242.9z"/>
	<line fill="none" stroke="#000000" stroke-width="0.5" stroke-miterlimit="10" x1="505.4" y1="239.4" x2="503.4" y2="235.9"/>
	<line fill="none" stroke="#000000" stroke-width="0.5" stroke-miterlimit="10" x1="545.8" y1="191.2" x2="472" y2="243.6"/>
	<line fill="none" stroke="#000000" stroke-width="0.5" stroke-miterlimit="10" x1="547.2" y1="193.3" x2="495.9" y2="229.7"/>
	<line fill="none" stroke="#000000" stroke-width="0.5" stroke-miterlimit="10" x1="484.1" y1="238.1" x2="472.7" y2="246.2"/>
	<polyline fill="none" stroke="#000000" stroke-width="0.5" stroke-miterlimit="10" points="546.7,192.3 547.9,191.4 554.2,200.4 
		553,201.3 	"/>
	<polyline fill="none" stroke="#000000" stroke-width="0.5" stroke-miterlimit="10" points="548.3,192 548.8,191.6 552.9,197.3 
		552.4,197.7 	"/>
	<path fill="none" stroke="#000000" stroke-width="0.5" stroke-miterlimit="10" d="M538.2,215.1l-14.8,10.5c0,0-5.6,4.1-4.6,7.9"/>
	<path fill="none" stroke="#000000" stroke-width="0.5" stroke-miterlimit="10" d="M512.2,235.3c0,0,5.4-2.6,9.6-2"/>
	<path fill="none" stroke="#000000" stroke-width="0.5" stroke-miterlimit="10" d="M470.9,268.4c0,0,0.6,1.5,2.8-0.1
		s6.1-4.3,9.3-2.5s4.1,10.1,5,11s1.8,0.9,2-0.3c0.3-1.1-0.2-8.2-4.5-12.8c-4.4-4.7-14,0-14.9,2.3
		C470.1,267.5,470.9,268.4,470.9,268.4z"/>
	<path fill="none" stroke="#000000" stroke-width="0.5" stroke-miterlimit="10" d="M550.6,198.1l-8.8,6.2c0,0-5,3.7-6.7,7.7"/>
	<polyline fill="none" stroke="#000000" stroke-width="0.5" stroke-miterlimit="10" points="498.8,238.2 495.8,229.1 494.9,229.7 	
		"/>
	<polyline fill="none" stroke="#000000" stroke-width="0.5" stroke-miterlimit="10" points="498.3,238.6 495.2,229.5 494.4,230.1 	
		"/>
	<polyline fill="none" stroke="#000000" stroke-width="0.5" stroke-miterlimit="10" points="497.7,238.9 494.7,229.9 493.9,230.5 	
		"/>
	<polyline fill="none" stroke="#000000" stroke-width="0.5" stroke-miterlimit="10" points="497.2,239.3 494.2,230.2 493.4,230.8 	
		"/>
	<polyline fill="none" stroke="#000000" stroke-width="0.5" stroke-miterlimit="10" points="496.7,239.7 493.7,230.6 492.8,231.2 	
		"/>
	<polyline fill="none" stroke="#000000" stroke-width="0.5" stroke-miterlimit="10" points="496.2,240 493.2,231 492.3,231.6 	"/>
	<polyline fill="none" stroke="#000000" stroke-width="0.5" stroke-miterlimit="10" points="495.7,240.4 492.7,231.3 491.8,231.9 	
		"/>
	<polyline fill="none" stroke="#000000" stroke-width="0.5" stroke-miterlimit="10" points="495.2,240.8 492.1,231.7 491.3,232.3 	
		"/>
	<polyline fill="none" stroke="#000000" stroke-width="0.5" stroke-miterlimit="10" points="494.6,241.1 491.6,232.1 490.8,232.7 	
		"/>
	<polyline fill="none" stroke="#000000" stroke-width="0.5" stroke-miterlimit="10" points="494.1,241.5 491.1,232.5 490.2,233.1 	
		"/>
	<polyline fill="none" stroke="#000000" stroke-width="0.5" stroke-miterlimit="10" points="493.6,241.9 490.6,232.8 489.7,233.4 	
		"/>
	<polyline fill="none" stroke="#000000" stroke-width="0.5" stroke-miterlimit="10" points="493.1,242.2 490.1,233.2 489.2,233.8 	
		"/>
	<polyline fill="none" stroke="#000000" stroke-width="0.5" stroke-miterlimit="10" points="492.6,242.6 489.5,233.6 488.7,234.2 	
		"/>
	<polyline fill="none" stroke="#000000" stroke-width="0.5" stroke-miterlimit="10" points="492,243 489,233.9 488.2,234.5 	"/>
	<polyline fill="none" stroke="#000000" stroke-width="0.5" stroke-miterlimit="10" points="491.5,243.3 488.5,234.3 487.7,234.9 	
		"/>
	<polyline fill="none" stroke="#000000" stroke-width="0.5" stroke-miterlimit="10" points="491,243.7 488,234.7 487.1,235.3 	"/>
	<polyline fill="none" stroke="#000000" stroke-width="0.5" stroke-miterlimit="10" points="490.5,244.1 487.5,235 486.6,235.6 	"/>
	<polyline fill="none" stroke="#000000" stroke-width="0.5" stroke-miterlimit="10" points="490,244.4 487,235.4 486.1,236 	"/>
	<polyline fill="none" stroke="#000000" stroke-width="0.5" stroke-miterlimit="10" points="489.5,244.8 486.4,235.8 485.6,236.4 	
		"/>
	<polyline fill="none" stroke="#000000" stroke-width="0.5" stroke-miterlimit="10" points="488.9,245.2 485.9,236.1 485.1,236.7 	
		"/>
	<polyline fill="none" stroke="#000000" stroke-width="0.5" stroke-miterlimit="10" points="488.4,245.5 485.4,236.5 484.6,237.1 	
		"/>
	<polyline fill="none" stroke="#000000" stroke-width="0.5" stroke-miterlimit="10" points="487.9,245.9 484.9,236.9 483.8,237.6 	
		"/>
	<line fill="none" stroke="#000000" stroke-width="0.5" stroke-miterlimit="10" x1="487.4" y1="246.3" x2="484.4" y2="237.2"/>
	<line fill="none" stroke="#000000" stroke-width="0.5" stroke-miterlimit="10" x1="486.9" y1="246.6" x2="483.8" y2="237.6"/>
	<path fill="none" stroke="#000000" stroke-width="0.5" stroke-miterlimit="10" d="M475.4,252.9c0,0-1.5-1-4.1-0.6
		c-2.6,0.4-3.5-3-2.6-3.8c0.9-0.8,2.2-1.9,4.3-1.4"/>
	<circle fill="none" stroke="#000000" stroke-width="0.5" stroke-miterlimit="10" cx="507" cy="253.6" r="2"/>
	<circle fill="none" stroke="#000000" stroke-width="0.5" stroke-miterlimit="10" cx="494.1" cy="251.7" r="1.8"/>
	<circle fill="none" stroke="#000000" stroke-width="0.5" stroke-miterlimit="10" cx="504.3" cy="289.8" r="1.8"/>
	<circle fill="none" stroke="#000000" stroke-width="0.5" stroke-miterlimit="10" cx="498.9" cy="298.2" r="1.2"/>
	<circle fill="none" stroke="#000000" stroke-width="0.5" stroke-miterlimit="10" cx="499.4" cy="270.3" r="3.5"/>
</g>
<g>
	<path fill="none" stroke="#000000" stroke-width="0.5" stroke-miterlimit="10" d="M87.7,217.6l-14.5-10.3c-0.9-0.7-1.2-2-0.5-2.9
		l10.1-14.2l73,51.8c0,0,1.1,3.8-4.2,12.7c0,0-1.1,2.5,0.9,5.2c0,0,1.3,1.4,1.3,3.1"/>
	<polyline fill="none" stroke="#000000" stroke-width="0.5" stroke-miterlimit="10" points="109.5,287.7 108.5,290.6 131.2,302.3 
		133.5,300.5 138.5,277.5 	"/>
	<path fill="none" stroke="#000000" stroke-width="0.5" stroke-miterlimit="10" d="M124.3,255.3c-1.8,2.4-4.8,1.8-4.8,1.8l-1.4,1.4
		l-9.5,28.2c2.7,2.4,3.6,5.7,3.6,5.7l16.1-49.5c0,0,8.4,5.3,13.3,9.8l-10,43.4c0,0-3.7-1.6-5.3,3.2"/>
	<path fill="none" stroke="#000000" stroke-width="0.5" stroke-miterlimit="10" d="M118,258.5c0,0-0.3-3.9-4.7-5l-9-6.4
		c0,0-2.8-4.4-0.7-7.4c2.1-3,3.9-6.6,0.6-9.5l-15.4-10.9c0,0-1.8-0.7-0.8-2.1l3.9-5.5l60,42.6"/>
	<path fill="none" stroke="#000000" stroke-width="0.5" stroke-miterlimit="10" d="M111.5,250.7c2.6,1.8,6.2,1.2,8.1-1.4
		s1.2-6.2-1.4-8.1l-4.6-3.3c-2.6-1.8-6.2-1.2-8.1,1.4c-1.8,2.6-1.2,6.2,1.4,8.1L111.5,250.7z"/>
	<path fill="none" stroke="#000000" stroke-width="0.5" stroke-miterlimit="10" d="M116.3,240.1c0,0,1.4,7.4-6.6,9.3"/>
	<path fill="none" stroke="#000000" stroke-width="0.5" stroke-miterlimit="10" d="M128.2,242.9l-12.3-7.6c0,0-1.6-1.4-0.6-2.7
		c0.9-1.3,2.2-2.1,4-0.7s11.2,8.1,11.2,8.1S131,242.2,128.2,242.9z"/>
	<line fill="none" stroke="#000000" stroke-width="0.5" stroke-miterlimit="10" x1="122.6" y1="239.4" x2="124.7" y2="235.9"/>
	<line fill="none" stroke="#000000" stroke-width="0.5" stroke-miterlimit="10" x1="82.3" y1="191.2" x2="156.1" y2="243.6"/>
	<line fill="none" stroke="#000000" stroke-width="0.5" stroke-miterlimit="10" x1="80.9" y1="193.3" x2="132.2" y2="229.7"/>
	<line fill="none" stroke="#000000" stroke-width="0.5" stroke-miterlimit="10" x1="144" y1="238.1" x2="155.4" y2="246.2"/>
	<polyline fill="none" stroke="#000000" stroke-width="0.5" stroke-miterlimit="10" points="81.4,192.3 80.2,191.4 73.9,200.4 
		75.1,201.3 	"/>
	<polyline fill="none" stroke="#000000" stroke-width="0.5" stroke-miterlimit="10" points="79.8,192 79.2,191.6 75.2,197.3 
		75.7,197.7 	"/>
	<path fill="none" stroke="#000000" stroke-width="0.5" stroke-miterlimit="10" d="M89.9,215.1l14.8,10.5c0,0,5.6,4.1,4.6,7.9"/>
	<path fill="none" stroke="#000000" stroke-width="0.5" stroke-miterlimit="10" d="M115.9,235.3c0,0-5.4-2.6-9.6-2"/>
	<path fill="none" stroke="#000000" stroke-width="0.5" stroke-miterlimit="10" d="M157.2,268.4c0,0-0.6,1.5-2.8-0.1
		s-6.1-4.3-9.3-2.5s-4.1,10.1-5,11c-0.9,0.8-1.8,0.9-2-0.3c-0.3-1.1,0.2-8.2,4.5-12.8s14,0,14.9,2.3
		C158,267.5,157.2,268.4,157.2,268.4z"/>
	<path fill="none" stroke="#000000" stroke-width="0.5" stroke-miterlimit="10" d="M77.4,198.1l8.8,6.2c0,0,5,3.7,6.7,7.7"/>
	<polyline fill="none" stroke="#000000" stroke-width="0.5" stroke-miterlimit="10" points="129.3,238.2 132.3,229.1 133.2,229.7 	
		"/>
	<polyline fill="none" stroke="#000000" stroke-width="0.5" stroke-miterlimit="10" points="129.8,238.6 132.8,229.5 133.7,230.1 	
		"/>
	<polyline fill="none" stroke="#000000" stroke-width="0.5" stroke-miterlimit="10" points="130.3,238.9 133.4,229.9 134.2,230.5 	
		"/>
	<polyline fill="none" stroke="#000000" stroke-width="0.5" stroke-miterlimit="10" points="130.9,239.3 133.9,230.2 134.7,230.8 	
		"/>
	<polyline fill="none" stroke="#000000" stroke-width="0.5" stroke-miterlimit="10" points="131.4,239.7 134.4,230.6 135.2,231.2 	
		"/>
	<polyline fill="none" stroke="#000000" stroke-width="0.5" stroke-miterlimit="10" points="131.9,240 134.9,231 135.8,231.6 	"/>
	<polyline fill="none" stroke="#000000" stroke-width="0.5" stroke-miterlimit="10" points="132.4,240.4 135.4,231.3 136.3,231.9 	
		"/>
	<polyline fill="none" stroke="#000000" stroke-width="0.5" stroke-miterlimit="10" points="132.9,240.8 136,231.7 136.8,232.3 	"/>
	<polyline fill="none" stroke="#000000" stroke-width="0.5" stroke-miterlimit="10" points="133.5,241.1 136.5,232.1 137.3,232.7 	
		"/>
	<polyline fill="none" stroke="#000000" stroke-width="0.5" stroke-miterlimit="10" points="134,241.5 137,232.5 137.8,233.1 	"/>
	<polyline fill="none" stroke="#000000" stroke-width="0.5" stroke-miterlimit="10" points="134.5,241.9 137.5,232.8 138.4,233.4 	
		"/>
	<polyline fill="none" stroke="#000000" stroke-width="0.5" stroke-miterlimit="10" points="135,242.2 138,233.2 138.9,233.8 	"/>
	<polyline fill="none" stroke="#000000" stroke-width="0.5" stroke-miterlimit="10" points="135.5,242.6 138.5,233.6 139.4,234.2 	
		"/>
	<polyline fill="none" stroke="#000000" stroke-width="0.5" stroke-miterlimit="10" points="136,243 139.1,233.9 139.9,234.5 	"/>
	<polyline fill="none" stroke="#000000" stroke-width="0.5" stroke-miterlimit="10" points="136.6,243.3 139.6,234.3 140.4,234.9 	
		"/>
	<polyline fill="none" stroke="#000000" stroke-width="0.5" stroke-miterlimit="10" points="137.1,243.7 140.1,234.7 140.9,235.3 	
		"/>
	<polyline fill="none" stroke="#000000" stroke-width="0.5" stroke-miterlimit="10" points="137.6,244.1 140.6,235 141.5,235.6 	"/>
	<polyline fill="none" stroke="#000000" stroke-width="0.5" stroke-miterlimit="10" points="138.1,244.4 141.1,235.4 142,236 	"/>
	<polyline fill="none" stroke="#000000" stroke-width="0.5" stroke-miterlimit="10" points="138.6,244.8 141.7,235.8 142.5,236.4 	
		"/>
	<polyline fill="none" stroke="#000000" stroke-width="0.5" stroke-miterlimit="10" points="139.2,245.2 142.2,236.1 143,236.7 	"/>
	<polyline fill="none" stroke="#000000" stroke-width="0.5" stroke-miterlimit="10" points="139.7,245.5 142.7,236.5 143.5,237.1 	
		"/>
	<polyline fill="none" stroke="#000000" stroke-width="0.5" stroke-miterlimit="10" points="140.2,245.9 143.2,236.9 144.2,237.6 	
		"/>
	<line fill="none" stroke="#000000" stroke-width="0.5" stroke-miterlimit="10" x1="140.7" y1="246.3" x2="143.7" y2="237.2"/>
	<line fill="none" stroke="#000000" stroke-width="0.5" stroke-miterlimit="10" x1="141.2" y1="246.6" x2="144.2" y2="237.6"/>
	<path fill="none" stroke="#000000" stroke-width="0.5" stroke-miterlimit="10" d="M152.7,252.9c0,0,1.5-1,4.1-0.6
		c2.6,0.4,3.5-3,2.6-3.8c-0.9-0.8-2.2-1.9-4.3-1.4"/>
	<circle fill="none" stroke="#000000" stroke-width="0.5" stroke-miterlimit="10" cx="121.1" cy="253.6" r="2"/>
	<circle fill="none" stroke="#000000" stroke-width="0.5" stroke-miterlimit="10" cx="134" cy="251.7" r="1.8"/>
	<circle fill="none" stroke="#000000" stroke-width="0.5" stroke-miterlimit="10" cx="123.8" cy="289.8" r="1.8"/>
	<circle fill="none" stroke="#000000" stroke-width="0.5" stroke-miterlimit="10" cx="129.2" cy="298.2" r="1.2"/>
	<circle fill="none" stroke="#000000" stroke-width="0.5" stroke-miterlimit="10" cx="128.7" cy="270.3" r="3.5"/>
</g>
<g>
	<polyline fill="none" stroke="#000000" stroke-width="0.5" stroke-miterlimit="10" points="496.6,330.2 547.9,330.2 547.9,327.1 
		574.4,327.1 574.4,332.5 	"/>
	<path fill="none" stroke="#000000" stroke-width="0.5" stroke-miterlimit="10" d="M472.9,330.2h-39v-3.1h-19.6v18.3h49.2v7.5h97.4
		c0,0,4.4,0.1,4.4-2.5c0,0,8.7,0.6,9.9-3.6s-2-14.2-2-14.2"/>
	<path fill="none" stroke="#000000" stroke-width="0.5" stroke-miterlimit="10" d="M493.4,353v45.4h-19.3c0,0-7.2-2.5-7.2-10.3
		c0-7.8,0.3-12.5,1.8-16.2c1.5-3.6,3.2-11.2-2.5-17.1"/>
	<path fill="none" stroke="#000000" stroke-width="0.5" stroke-miterlimit="10" d="M455.6,345.3v2.9l-0.8,0.6l0.3,1.8h6.6v3
		c0,0,0.4,1.1,6.9,1.1s19.1,0,19.1,0s3.8-0.2,3.8,3.2c0,3.8,0,40.3,0,40.3"/>
	<path fill="none" stroke="#000000" stroke-width="0.5" stroke-miterlimit="10" d="M492.4,398.6v23.8h-13.1c-1.6,0-2.9-1.3-2.9-2.9
		v-20.9"/>
	<polygon fill="none" stroke="#000000" stroke-width="0.5" stroke-miterlimit="10" points="486.6,393.8 486.6,364.2 475.7,376.8 
		475.7,393.6 	"/>
	<polyline fill="none" stroke="#000000" stroke-width="0.5" stroke-miterlimit="10" points="414.3,327.1 415.3,325.7 435.7,325.7 
		435.7,327.8 459.1,324 474.1,323.8 	"/>
	<path fill="none" stroke="#000000" stroke-width="0.5" stroke-miterlimit="10" d="M474.4,327.8v-4.9h42.9c0,0,22.3,0.2,27.1,2.6
		h11.7"/>
	<path fill="none" stroke="#000000" stroke-width="0.5" stroke-miterlimit="10" d="M474.5,337.6h-1.8v-7.5c0-1.3,1-2.3,2.3-2.3h19.3
		c1.3,0,2.3,1,2.3,2.3v7.5h-19.3"/>
	<line fill="none" stroke="#000000" stroke-width="0.5" stroke-miterlimit="10" x1="494.8" y1="323" x2="494.8" y2="327.7"/>
	<line fill="none" stroke="#000000" stroke-width="0.5" stroke-miterlimit="10" x1="496.5" y1="331.1" x2="472.8" y2="331.1"/>
	<path fill="none" stroke="#000000" stroke-width="0.5" stroke-miterlimit="10" d="M575.2,345.4h6.1c2.3,0,4.1-1.9,4.1-4.1v-4.5
		c0-2.3-1.9-4.1-4.1-4.1h-39.8v1.6h-21c-1.3,0-2.3,1-2.3,2.3v7.9H517v4.6c0,2.2,1.8,4,4,4"/>
	<polyline fill="none" stroke="#000000" stroke-width="0.5" stroke-miterlimit="10" points="585.3,335.5 611.2,335.5 611.2,342.4 
		585.3,342.4 	"/>
	<path fill="none" stroke="#000000" stroke-width="0.5" stroke-miterlimit="10" d="M556.3,327.1v-5c0-2.7,2.2-4.9,4.9-4.9h4.9
		c2.7,0,4.9,2.2,4.9,4.9v5"/>
	<rect x="525.8" y="316" fill="none" stroke="#000000" stroke-width="0.5" stroke-miterlimit="10" width="9.3" height="5.7"/>
	<line fill="none" stroke="#000000" stroke-width="0.5" stroke-miterlimit="10" x1="535.1" y1="321.8" x2="534" y2="323.7"/>
	<line fill="none" stroke="#000000" stroke-width="0.5" stroke-miterlimit="10" x1="525.8" y1="321.8" x2="526.8" y2="323.2"/>
	<path fill="none" stroke="#000000" stroke-width="0.5" stroke-miterlimit="10" d="M493.5,356.4l3.5-1.9h18.1v9.7
		c0,0-0.1,4.2-1.5,4.9c-1.4,0.7-16.4,3.3-20-3.8"/>
	<path fill="none" stroke="#000000" stroke-width="0.5" stroke-miterlimit="10" d="M493.6,368.8c0,0,9,5.6,21,1.8
		c0,0,2.1,0.4,2.1-2.9v-14.7"/>
	<path fill="none" stroke="#000000" stroke-width="0.5" stroke-miterlimit="10" d="M497.3,354.5c0,0-0.7,4.7-0.5,8.1
		c0.2,3.3,3.6,6.1,4.4,6.1s0.7-1.4-0.6-2.6c-1.3-1.2-2.4-4-1.6-6.4c0.9-2.4,3-4.3,4.6-5.3"/>
	<path fill="none" stroke="#000000" stroke-width="0.5" stroke-miterlimit="10" d="M455.1,336c0.7,0,1.4-0.6,1.4-1.4
		s-0.6-1.4-1.4-1.4h-21.6c-0.7,0-1.4,0.6-1.4,1.4s0.6,1.4,1.4,1.4H455.1z"/>
	<path fill="none" stroke="#000000" stroke-width="0.5" stroke-miterlimit="10" d="M455.1,341.6c0.7,0,1.4-0.6,1.4-1.4
		s-0.6-1.4-1.4-1.4h-21.6c-0.7,0-1.4,0.6-1.4,1.4s0.6,1.4,1.4,1.4H455.1z"/>
	<path fill="none" stroke="#000000" stroke-width="0.5" stroke-miterlimit="10" d="M502.1,338.9c-0.7,0-1.4-0.6-1.4-1.4l0-0.1
		c0-0.7,0.6-1.4,1.4-1.4l10.3,0c0.7,0,1.4-0.6,1.4-1.4s-0.6-1.4-1.4-1.4h-12.9c-0.7,0-1.4,0.6-1.4,1.4v4.5l-26.8-0.1v-4.5
		c0-0.7-0.6-1.4-1.4-1.4h-5.6c-0.7,0-1.4,0.6-1.4,1.4s0.6,1.4,1.4,1.4l2.8,0c0.7,0,1.4,0.6,1.4,1.4l0,0.1c0,0.7-0.6,1.4-1.4,1.4
		l-2.8,0c-0.7,0-1.4,0.6-1.4,1.4s0.6,1.4,1.4,1.4h47.9c0.7,0,1.4-0.6,1.4-1.4s-0.6-1.4-1.4-1.4L502.1,338.9z"/>
	<path fill="none" stroke="#000000" stroke-width="0.5" stroke-miterlimit="10" d="M502.5,350.7H478c-1.4,0-2.5-1.1-2.5-2.5l0,0
		c0-1.4,1.1-2.5,2.5-2.5h24.5c1.4,0,2.5,1.1,2.5,2.5l0,0C505,349.6,503.9,350.7,502.5,350.7z"/>
	<circle fill="none" stroke="#000000" stroke-width="0.5" stroke-miterlimit="10" cx="467.3" cy="348.5" r="1.5"/>
	<circle fill="none" stroke="#000000" stroke-width="0.5" stroke-miterlimit="10" cx="473.1" cy="371.8" r="1.5"/>
	<circle fill="none" stroke="#000000" stroke-width="0.5" stroke-miterlimit="10" cx="473.1" cy="386.2" r="1.5"/>
	<circle fill="none" stroke="#000000" stroke-width="0.5" stroke-miterlimit="10" cx="481.1" cy="402" r="1.5"/>
	<circle fill="none" stroke="#000000" stroke-width="0.5" stroke-miterlimit="10" cx="487.3" cy="402" r="1.5"/>
	<circle fill="none" stroke="#000000" stroke-width="0.5" stroke-miterlimit="10" cx="512.7" cy="348.5" r="1.5"/>
	<circle fill="none" stroke="#000000" stroke-width="0.5" stroke-miterlimit="10" cx="528.9" cy="348.1" r="1.5"/>
	<circle fill="none" stroke="#000000" stroke-width="0.5" stroke-miterlimit="10" cx="563.5" cy="348.1" r="1.5"/>
	<circle fill="none" stroke="#000000" stroke-width="0.5" stroke-miterlimit="10" cx="475.8" cy="337.2" r="1.5"/>
	<circle fill="none" stroke="#000000" stroke-width="0.5" stroke-miterlimit="10" cx="500.4" cy="348.2" r="1"/>
	<circle fill="none" stroke="#000000" stroke-width="0.5" stroke-miterlimit="10" cx="457.9" cy="347.7" r="1"/>
	<path fill="none" stroke="#000000" stroke-width="0.5" stroke-miterlimit="10" d="M416.3,325.8v-3c0-4.6,3.7-8.3,8.3-8.3h1.1
		c4.6,0,8.3,3.7,8.3,8.3v3"/>
</g>
<g>
	<polyline fill="none" stroke="#000000" stroke-width="0.5" stroke-miterlimit="10" points="114.8,330.2 63.5,330.2 63.5,327.1 
		37,327.1 37,332.5 	"/>
	<path fill="none" stroke="#000000" stroke-width="0.5" stroke-miterlimit="10" d="M138.6,330.2h39v-3.1h19.6v18.3H148v7.5H50.6
		c0,0-4.4,0.1-4.4-2.5c0,0-8.7,0.6-9.9-3.6s2-14.2,2-14.2"/>
	<path fill="none" stroke="#000000" stroke-width="0.5" stroke-miterlimit="10" d="M118,353v45.4h19.3c0,0,7.2-2.5,7.2-10.3
		c0-7.8-0.3-12.5-1.8-16.2c-1.5-3.6-3.2-11.2,2.5-17.1"/>
	<path fill="none" stroke="#000000" stroke-width="0.5" stroke-miterlimit="10" d="M155.9,345.3v2.9l0.8,0.6l-0.3,1.8h-6.6v3
		c0,0-0.4,1.1-6.9,1.1s-19.1,0-19.1,0s-3.8-0.2-3.8,3.2c0,3.8,0,40.3,0,40.3"/>
	<path fill="none" stroke="#000000" stroke-width="0.5" stroke-miterlimit="10" d="M119.1,398.6v23.8h13.1c1.6,0,2.9-1.3,2.9-2.9
		v-20.9"/>
	<polygon fill="none" stroke="#000000" stroke-width="0.5" stroke-miterlimit="10" points="124.8,393.8 124.8,364.2 135.8,376.8 
		135.8,393.6 	"/>
	<polyline fill="none" stroke="#000000" stroke-width="0.5" stroke-miterlimit="10" points="197.2,327.1 196.1,325.7 175.8,325.7 
		175.8,327.8 152.3,324 137.3,323.8 	"/>
	<path fill="none" stroke="#000000" stroke-width="0.5" stroke-miterlimit="10" d="M137,327.8v-4.9H94.1c0,0-22.3,0.2-27.1,2.6H55.3
		"/>
	<path fill="none" stroke="#000000" stroke-width="0.5" stroke-miterlimit="10" d="M137,337.6h1.8v-7.5c0-1.3-1-2.3-2.3-2.3h-19.3
		c-1.3,0-2.3,1-2.3,2.3v7.5h19.3"/>
	<line fill="none" stroke="#000000" stroke-width="0.5" stroke-miterlimit="10" x1="116.7" y1="323" x2="116.7" y2="327.7"/>
	<line fill="none" stroke="#000000" stroke-width="0.5" stroke-miterlimit="10" x1="114.9" y1="331.1" x2="138.7" y2="331.1"/>
	<path fill="none" stroke="#000000" stroke-width="0.5" stroke-miterlimit="10" d="M36.2,345.4h-6.1c-2.3,0-4.1-1.9-4.1-4.1v-4.5
		c0-2.3,1.9-4.1,4.1-4.1H70v1.6h21c1.3,0,2.3,1,2.3,2.3v7.9h1.1v4.6c0,2.2-1.8,4-4,4"/>
	<polyline fill="none" stroke="#000000" stroke-width="0.5" stroke-miterlimit="10" points="26.1,335.5 0.2,335.5 0.2,342.4 
		26.1,342.4 	"/>
	<path fill="none" stroke="#000000" stroke-width="0.5" stroke-miterlimit="10" d="M55.2,327.1v-5c0-2.7-2.2-4.9-4.9-4.9h-4.9
		c-2.7,0-4.9,2.2-4.9,4.9v5"/>
	<rect x="76.3" y="316" fill="none" stroke="#000000" stroke-width="0.5" stroke-miterlimit="10" width="9.3" height="5.7"/>
	<line fill="none" stroke="#000000" stroke-width="0.5" stroke-miterlimit="10" x1="76.3" y1="321.8" x2="77.5" y2="323.7"/>
	<line fill="none" stroke="#000000" stroke-width="0.5" stroke-miterlimit="10" x1="85.6" y1="321.8" x2="84.7" y2="323.2"/>
	<path fill="none" stroke="#000000" stroke-width="0.5" stroke-miterlimit="10" d="M118,356.4l-3.5-1.9H96.4v9.7
		c0,0,0.1,4.2,1.5,4.9c1.4,0.7,16.4,3.3,20-3.8"/>
	<path fill="none" stroke="#000000" stroke-width="0.5" stroke-miterlimit="10" d="M117.8,368.8c0,0-9,5.6-21,1.8
		c0,0-2.1,0.4-2.1-2.9v-14.7"/>
	<path fill="none" stroke="#000000" stroke-width="0.5" stroke-miterlimit="10" d="M114.1,354.5c0,0,0.7,4.7,0.5,8.1
		c-0.2,3.3-3.6,6.1-4.4,6.1s-0.7-1.4,0.6-2.6c1.3-1.2,2.4-4,1.6-6.4s-3-4.3-4.6-5.3"/>
	<path fill="none" stroke="#000000" stroke-width="0.5" stroke-miterlimit="10" d="M156.3,336c-0.7,0-1.4-0.6-1.4-1.4
		s0.6-1.4,1.4-1.4h21.6c0.7,0,1.4,0.6,1.4,1.4s-0.6,1.4-1.4,1.4H156.3z"/>
	<path fill="none" stroke="#000000" stroke-width="0.5" stroke-miterlimit="10" d="M156.3,341.6c-0.7,0-1.4-0.6-1.4-1.4
		s0.6-1.4,1.4-1.4h21.6c0.7,0,1.4,0.6,1.4,1.4s-0.6,1.4-1.4,1.4H156.3z"/>
	<path fill="none" stroke="#000000" stroke-width="0.5" stroke-miterlimit="10" d="M109.4,338.9c0.7,0,1.4-0.6,1.4-1.4l0-0.1
		c0-0.7-0.6-1.4-1.4-1.4l-10.3,0c-0.7,0-1.4-0.6-1.4-1.4s0.6-1.4,1.4-1.4h12.9c0.7,0,1.4,0.6,1.4,1.4v4.5l26.8-0.1v-4.5
		c0-0.7,0.6-1.4,1.4-1.4h5.6c0.7,0,1.4,0.6,1.4,1.4s-0.6,1.4-1.4,1.4l-2.8,0c-0.7,0-1.4,0.6-1.4,1.4l0,0.1c0,0.7,0.6,1.4,1.4,1.4
		l2.8,0c0.7,0,1.4,0.6,1.4,1.4s-0.6,1.4-1.4,1.4H99.1c-0.7,0-1.4-0.6-1.4-1.4s0.6-1.4,1.4-1.4L109.4,338.9z"/>
	<path fill="none" stroke="#000000" stroke-width="0.5" stroke-miterlimit="10" d="M108.9,350.7h24.5c1.4,0,2.5-1.1,2.5-2.5l0,0
		c0-1.4-1.1-2.5-2.5-2.5h-24.5c-1.4,0-2.5,1.1-2.5,2.5l0,0C106.4,349.6,107.5,350.7,108.9,350.7z"/>
	<circle fill="none" stroke="#000000" stroke-width="0.5" stroke-miterlimit="10" cx="144.1" cy="348.5" r="1.5"/>
	<circle fill="none" stroke="#000000" stroke-width="0.5" stroke-miterlimit="10" cx="138.4" cy="371.8" r="1.5"/>
	<circle fill="none" stroke="#000000" stroke-width="0.5" stroke-miterlimit="10" cx="138.4" cy="386.2" r="1.5"/>
	<circle fill="none" stroke="#000000" stroke-width="0.5" stroke-miterlimit="10" cx="130.4" cy="402" r="1.5"/>
	<circle fill="none" stroke="#000000" stroke-width="0.5" stroke-miterlimit="10" cx="124.1" cy="402" r="1.5"/>
	<circle fill="none" stroke="#000000" stroke-width="0.5" stroke-miterlimit="10" cx="98.7" cy="348.5" r="1.5"/>
	<circle fill="none" stroke="#000000" stroke-width="0.5" stroke-miterlimit="10" cx="82.6" cy="348.1" r="1.5"/>
	<circle fill="none" stroke="#000000" stroke-width="0.5" stroke-miterlimit="10" cx="47.9" cy="348.1" r="1.5"/>
	<circle fill="none" stroke="#000000" stroke-width="0.5" stroke-miterlimit="10" cx="135.6" cy="337.2" r="1.5"/>
	<circle fill="none" stroke="#000000" stroke-width="0.5" stroke-miterlimit="10" cx="111" cy="348.2" r="1"/>
	<circle fill="none" stroke="#000000" stroke-width="0.5" stroke-miterlimit="10" cx="153.5" cy="347.7" r="1"/>
	<path fill="none" stroke="#000000" stroke-width="0.5" stroke-miterlimit="10" d="M195.2,325.8v-3c0-4.6-3.7-8.3-8.3-8.3h-1.1
		c-4.6,0-8.3,3.7-8.3,8.3v3"/>
</g>
<g>
	<g>
		<path fill="none" stroke="#000000" stroke-width="0.5" stroke-miterlimit="10" d="M284.2,186.1l-18.8,12.2l8.9,13.7
			c-0.6-0.1-36.7,24.8-36.7,24.8l-0.9,4.1l-6.2,4.1l-1.3-0.7l-15.2,9.9l-0.1,1.5l-24.7,16.1L178.1,258l-0.4-2"/>
		<line fill="none" stroke="#000000" stroke-width="0.5" stroke-miterlimit="10" x1="299.3" y1="176.2" x2="293.8" y2="179.8"/>
		<line fill="none" stroke="#000000" stroke-width="0.5" stroke-miterlimit="10" x1="315.8" y1="165.5" x2="309.1" y2="169.9"/>
		<path fill="none" stroke="#000000" stroke-width="0.5" stroke-miterlimit="10" d="M274.4,212c0,0,2.9,1.1,5.8-0.7
			s8.3-10.6,8.3-10.6l32.3-21l-0.2-2l2.5-1.6l-12.4-19l-2.6,1.7l-3.2-0.7L275.6,177l6.7,10.3"/>
		<line fill="none" stroke="#000000" stroke-width="0.5" stroke-miterlimit="10" x1="308.1" y1="158.6" x2="320.4" y2="177.6"/>
		<polyline fill="none" stroke="#000000" stroke-width="0.5" stroke-miterlimit="10" points="252.7,194.8 256.6,200.8 255.7,205.2 
			177.7,256.1 177,255 177.1,252.5 261.9,197.2 272.3,213.1 		"/>
		<path fill="none" stroke="#000000" stroke-width="0.5" stroke-miterlimit="10" d="M323,175.9l27-17.6l-0.9-1.4l7.7-5l-5.1-7.8
			c0,0-9.6,4.2-14.3-3l-26.1,17"/>
		<line fill="none" stroke="#000000" stroke-width="0.5" stroke-miterlimit="10" x1="345.5" y1="145.4" x2="315.9" y2="164.7"/>
		<line fill="none" stroke="#000000" stroke-width="0.5" stroke-miterlimit="10" x1="339.5" y1="149.3" x2="346.8" y2="160.5"/>
		<line fill="none" stroke="#000000" stroke-width="0.5" stroke-miterlimit="10" x1="356" y1="150.6" x2="345" y2="157.8"/>
		<line fill="none" stroke="#000000" stroke-width="0.5" stroke-miterlimit="10" x1="345.9" y1="159.3" x2="322.1" y2="174.8"/>
		<line fill="none" stroke="#000000" stroke-width="0.5" stroke-miterlimit="10" x1="317.5" y1="159.7" x2="314.8" y2="155.5"/>
		<polyline fill="none" stroke="#000000" stroke-width="0.5" stroke-miterlimit="10" points="321.5,173.5 325,171.2 318.4,161.2 		
			"/>
		<line fill="none" stroke="#000000" stroke-width="0.5" stroke-miterlimit="10" x1="329.1" y1="146.7" x2="333.4" y2="153.3"/>
		<polyline fill="none" stroke="#000000" stroke-width="0.5" stroke-miterlimit="10" points="346.8,156.6 342.7,150.3 340.9,151.5 
					"/>
		<line fill="none" stroke="#000000" stroke-width="0.5" stroke-miterlimit="10" x1="341.3" y1="152.4" x2="321.2" y2="165.6"/>
		<line fill="none" stroke="#000000" stroke-width="0.5" stroke-miterlimit="10" x1="344.4" y1="157.1" x2="324.2" y2="170.2"/>
		<line fill="none" stroke="#000000" stroke-width="0.5" stroke-miterlimit="10" x1="345" y1="154.1" x2="343.5" y2="155.1"/>
		<polyline fill="none" stroke="#000000" stroke-width="0.5" stroke-miterlimit="10" points="349.9,158 389,132.6 389.5,129.9 
			388.8,128.7 		"/>
		<line fill="none" stroke="#000000" stroke-width="0.5" stroke-miterlimit="10" x1="378" y1="134.9" x2="355.3" y2="149.7"/>
		<polyline fill="none" stroke="#000000" stroke-width="0.5" stroke-miterlimit="10" points="386.3,122.8 390.3,120.2 393.3,124.9 
			389.4,127.5 		"/>
		<line fill="none" stroke="#000000" stroke-width="0.5" stroke-miterlimit="10" x1="352.3" y1="145" x2="375" y2="130.2"/>
		
			<rect x="375.5" y="125.1" transform="matrix(0.8378 -0.546 0.546 0.8378 -8.2611 229.571)" fill="none" stroke="#000000" stroke-width="0.5" stroke-miterlimit="10" width="13.5" height="7.2"/>
		<line fill="none" stroke="#000000" stroke-width="0.5" stroke-miterlimit="10" x1="383" y1="132.5" x2="384.8" y2="135.3"/>
		<line fill="none" stroke="#000000" stroke-width="0.5" stroke-miterlimit="10" x1="356.6" y1="151.5" x2="384" y2="133.7"/>
		<polyline fill="none" stroke="#000000" stroke-width="0.5" stroke-miterlimit="10" points="384.9,122.6 376.1,109.1 369.2,113.6 
			372.6,118.7 373.5,129.4 374.2,130.6 		"/>
		<polygon fill="none" stroke="#000000" stroke-width="0.5" stroke-miterlimit="10" points="375.7,126.9 382.9,122.2 380.3,118.2 
			375.2,121.5 		"/>
		<path fill="none" stroke="#000000" stroke-width="0.5" stroke-miterlimit="10" d="M378.2,116.8c0.4,0.6,0.2,1.3-0.4,1.7
			c-0.6,0.4-1.3,0.2-1.7-0.4l-1.1-1.7c-0.4-0.6-0.2-1.3,0.4-1.7c0.6-0.4,1.3-0.2,1.7,0.4L378.2,116.8z"/>
		<path fill="none" stroke="#000000" stroke-width="0.5" stroke-miterlimit="10" d="M330.2,153.4c0.4-0.3,0.5-0.8,0.2-1.2
			c-0.3-0.4-0.8-0.5-1.2-0.2l-13.5,8.8c-0.4,0.3-0.5,0.8-0.2,1.2c0.3,0.4,0.8,0.5,1.2,0.2L330.2,153.4z"/>
		<path fill="none" stroke="#000000" stroke-width="0.5" stroke-miterlimit="10" d="M177.5,252.4l2.6-10.3l89-58l-0.4-0.7
			c-0.8-1.2-0.4-2.7,0.7-3.5c1.2-0.8,2.7-0.4,3.5,0.7l0.7,1.1c0.3,0.4,0.8,0.5,1.2,0.2c0.4-0.3,0.5-0.8,0.2-1.2l-0.8-1.3l2.1-1.4"/>
		<circle fill="none" stroke="#000000" stroke-width="0.5" stroke-miterlimit="10" cx="270.9" cy="182.3" r="1.2"/>
		<polyline fill="none" stroke="#000000" stroke-width="0.5" stroke-miterlimit="10" points="268.3,181.5 262.2,185.5 261.5,187.2 
			256.3,190.6 255,188.5 251.8,190.6 252.5,191.5 251.1,192.4 248.7,192 248.2,194.1 252.3,195 		"/>
		<path fill="none" stroke="#000000" stroke-width="0.5" stroke-miterlimit="10" d="M192,270.1l2.2,3.3c0,0,2.6-1.8,6,3.3
			c0,0,1.6,2.3,2.9,10.8c1.2,8.5,1.1,10.1,5,12.9s12.6-0.3,13.8-4.1c1.2-3.8-1.2-3.9-2.6-8.3c-1.4-4.5-3.6-21.9-3.6-21.9
			s0.3-1.2,0.9-1.8c0.5-0.7,2.2-2.7,1.1-4.4l-1.6-2.5L193.2,272"/>
		<line fill="none" stroke="#000000" stroke-width="0.5" stroke-miterlimit="10" x1="213.9" y1="255.6" x2="215.3" y2="257.7"/>
		<path fill="none" stroke="#000000" stroke-width="0.5" stroke-miterlimit="10" d="M220.5,250l-0.7,4.1c-0.1,0.5,0,1.1,0.3,1.5
			l0.2,0.3c0.3,0.4,0.7,0.7,1.1,0.9l2.9,0.9c0.5,0.1,0.7,0.6,0.6,1.1l0,0c-0.1,0.4-0.6,0.7-1,0.6l-3.9-0.9c-0.5-0.1-1-0.4-1.3-0.9
			l-0.7-1c-0.3-0.5-0.4-1.1-0.3-1.7l0-0.2c0.1-0.2,0-0.5-0.1-0.7l0,0c-0.2-0.3-0.6-0.5-0.9-0.4l-2.3,0.5"/>
		<polyline fill="none" stroke="#000000" stroke-width="0.5" stroke-miterlimit="10" points="229.3,244.6 234.8,253 234.4,254.7 
			220.8,263.5 219.1,263.3 217.9,261.3 		"/>
		<polyline fill="none" stroke="#000000" stroke-width="0.5" stroke-miterlimit="10" points="216.9,263.2 218.3,265.4 221,265.6 
			236.3,255.6 236.9,252.8 235.7,250.9 239.6,248.4 240,246.3 236.6,241 		"/>
		<path fill="none" stroke="#000000" stroke-width="0.5" stroke-miterlimit="10" d="M257.3,223.9c0,0,13.9,23.9,52.1,26l0,22.3
			c-48-2.2-72.2-32.7-72.2-32.7"/>
		<path fill="none" stroke="#000000" stroke-width="0.5" stroke-miterlimit="10" d="M252.3,227.1c0,0,13.2,21.5,49.1,26.6"/>
		<path fill="none" stroke="#000000" stroke-width="0.5" stroke-miterlimit="10" d="M240.6,238c0,0,15,23.2,60.6,30.4"/>
		<path fill="none" stroke="#000000" stroke-width="0.5" stroke-miterlimit="10" d="M237.3,238.8"/>
		<path fill="none" stroke="#000000" stroke-width="0.5" stroke-miterlimit="10" d="M240,246.9c0,0,18.5,22.4,64.9,28.6l4.7-3.1"/>
		<path fill="none" stroke="#000000" stroke-width="0.5" stroke-miterlimit="10" d="M300.3,258.5c-0.2,0.1-0.5,0.2-0.7,0.1
			c-38.5-7.4-49.7-25.5-50.2-26.2c-0.3-0.5-0.1-1.1,0.3-1.3c0.5-0.3,1.1-0.1,1.3,0.3l0,0c0.1,0.2,11.3,18.1,48.9,25.3
			c0.5,0.1,0.9,0.6,0.8,1.1C300.7,258.2,300.5,258.4,300.3,258.5z"/>
		<path fill="none" stroke="#000000" stroke-width="0.5" stroke-miterlimit="10" d="M299.9,261.5c-0.2,0.1-0.5,0.2-0.7,0.1
			c-38.5-7.4-51.9-26.6-52.5-27.4c-0.3-0.4-0.2-1.1,0.3-1.4c0.4-0.3,1.1-0.2,1.4,0.3c0.1,0.2,13.6,19.3,51.2,26.6
			c0.5,0.1,0.9,0.6,0.8,1.1C300.3,261.1,300.1,261.4,299.9,261.5z"/>
		<path fill="none" stroke="#000000" stroke-width="0.5" stroke-miterlimit="10" d="M299.4,264.6c-0.2,0.1-0.5,0.2-0.7,0.1
			c-20.1-3.9-33.8-11.4-41.9-17.1c-8.7-6.2-12.6-11.3-12.8-11.6c-0.3-0.4-0.2-1,0.2-1.4c0.5-0.3,1-0.2,1.4,0.2
			c0.2,0.2,15.8,20.6,53.5,27.9c0.5,0.1,0.9,0.6,0.8,1.1C299.8,264.2,299.6,264.4,299.4,264.6z"/>
		<path fill="none" stroke="#000000" stroke-width="0.5" stroke-miterlimit="10" d="M303,270.7c-0.2,0.1-0.3,0.2-0.5,0.2
			c-0.5,0-1-0.5-1-1l0.2-18.8c0-0.5,0.5-1,1-1c0.5,0,1,0.5,1,1l-0.2,18.8C303.4,270.2,303.3,270.5,303,270.7z"/>
		<path fill="none" stroke="#000000" stroke-width="0.5" stroke-miterlimit="10" d="M306.4,270.7c-0.2,0.1-0.3,0.2-0.5,0.2
			c-0.5,0-1-0.5-1-1l0.3-18c0-0.5,0.5-1,1-1c0.5,0,1,0.5,1,1l-0.3,18C306.8,270.2,306.6,270.5,306.4,270.7z"/>
		<path fill="none" stroke="#000000" stroke-width="0.5" stroke-miterlimit="10" d="M268.2,213.8l-20.9,13.6c-0.8,0.5-2,0.3-2.5-0.5
			l-1.2-1.8c-0.5-0.8-0.3-2,0.5-2.5l20.9-13.6c0.8-0.5,2-0.3,2.5,0.5l1.2,1.8C269.3,212.1,269.1,213.2,268.2,213.8z"/>
		<path fill="none" stroke="#000000" stroke-width="0.5" stroke-miterlimit="10" d="M243.3,216.8l-61.8,40.3
			c-0.3,0.2-0.7,0.1-0.9-0.2l-0.2-0.3c-0.2-0.3-0.1-0.7,0.2-0.9l61.8-40.3c0.3-0.2,0.7-0.1,0.9,0.2l0.2,0.3
			C243.6,216.2,243.6,216.6,243.3,216.8z"/>
		<circle fill="none" stroke="#000000" stroke-width="0.5" stroke-miterlimit="10" cx="231.9" cy="236.6" r="1.4"/>
		<circle fill="none" stroke="#000000" stroke-width="0.5" stroke-miterlimit="10" cx="226" cy="238" r="1.4"/>
		<circle fill="none" stroke="#000000" stroke-width="0.5" stroke-miterlimit="10" cx="215.1" cy="249.1" r="1.4"/>
		<circle fill="none" stroke="#000000" stroke-width="0.5" stroke-miterlimit="10" cx="202.1" cy="246.6" r="1.4"/>
		<circle fill="none" stroke="#000000" stroke-width="0.5" stroke-miterlimit="10" cx="236" cy="246.6" r="1.4"/>
		<circle fill="none" stroke="#000000" stroke-width="0.5" stroke-miterlimit="10" cx="262.4" cy="204.2" r="1.4"/>
		
			<rect x="283.4" y="181.8" transform="matrix(0.8378 -0.546 0.546 0.8378 -53.021 187.5284)" fill="none" stroke="#000000" stroke-width="0.5" stroke-miterlimit="10" width="11.4" height="2.3"/>
		
			<rect x="298.5" y="172" transform="matrix(0.8378 -0.546 0.546 0.8378 -45.1815 194.1905)" fill="none" stroke="#000000" stroke-width="0.5" stroke-miterlimit="10" width="11.4" height="2.3"/>
	</g>
	<g>
		<path fill="none" stroke="#000000" stroke-width="0.5" stroke-miterlimit="10" d="M340.1,186.1l18.8,12.2l-8.9,13.7
			c0.6-0.1,36.7,24.8,36.7,24.8l0.9,4.1l6.2,4.1l1.3-0.7l15.2,9.9l0.1,1.5l24.7,16.1l11.2-13.7l0.4-2"/>
		<line fill="none" stroke="#000000" stroke-width="0.5" stroke-miterlimit="10" x1="325" y1="176.2" x2="330.5" y2="179.8"/>
		<polyline fill="none" stroke="#000000" stroke-width="0.5" stroke-miterlimit="10" points="335.2,168.2 348.7,177 342,187.3 		"/>
		<path fill="none" stroke="#000000" stroke-width="0.5" stroke-miterlimit="10" d="M301.3,175.9"/>
		<path fill="none" stroke="#000000" stroke-width="0.5" stroke-miterlimit="10" d="M349.9,212c0,0-2.9,1.1-5.8-0.7
			s-8.3-10.6-8.3-10.6l-23.7-15.5"/>
		<polyline fill="none" stroke="#000000" stroke-width="0.5" stroke-miterlimit="10" points="371.6,194.8 367.7,200.8 368.6,205.2 
			446.7,256.1 447.4,255 447.2,252.5 362.4,197.2 352.1,213.1 		"/>
		<path fill="none" stroke="#000000" stroke-width="0.5" stroke-miterlimit="10" d="M289.7,168.2l-15.4-9.9l0.9-1.4l-7.7-5l5.1-7.8
			c0,0,9.6,4.2,14.3-3l25.2,16.3"/>
		<line fill="none" stroke="#000000" stroke-width="0.5" stroke-miterlimit="10" x1="278.8" y1="145.4" x2="300.8" y2="160.4"/>
		<line fill="none" stroke="#000000" stroke-width="0.5" stroke-miterlimit="10" x1="284.8" y1="149.3" x2="277.5" y2="160.5"/>
		<line fill="none" stroke="#000000" stroke-width="0.5" stroke-miterlimit="10" x1="268.4" y1="150.6" x2="279.3" y2="157.8"/>
		<line fill="none" stroke="#000000" stroke-width="0.5" stroke-miterlimit="10" x1="278.4" y1="159.3" x2="290.6" y2="167"/>
		<line fill="none" stroke="#000000" stroke-width="0.5" stroke-miterlimit="10" x1="307.7" y1="158.6" x2="309.6" y2="155.5"/>
		<line fill="none" stroke="#000000" stroke-width="0.5" stroke-miterlimit="10" x1="295.2" y1="146.7" x2="290.9" y2="153.3"/>
		<polyline fill="none" stroke="#000000" stroke-width="0.5" stroke-miterlimit="10" points="277.6,156.6 281.6,150.3 283.5,151.5 
					"/>
		<line fill="none" stroke="#000000" stroke-width="0.5" stroke-miterlimit="10" x1="283" y1="152.4" x2="298.1" y2="162.3"/>
		<line fill="none" stroke="#000000" stroke-width="0.5" stroke-miterlimit="10" x1="280" y1="157.1" x2="293.1" y2="165.8"/>
		<line fill="none" stroke="#000000" stroke-width="0.5" stroke-miterlimit="10" x1="279.4" y1="154.1" x2="280.8" y2="155.1"/>
		<polyline fill="none" stroke="#000000" stroke-width="0.5" stroke-miterlimit="10" points="274.4,158 235.4,132.6 234.8,129.9 
			235.5,128.7 		"/>
		<line fill="none" stroke="#000000" stroke-width="0.5" stroke-miterlimit="10" x1="246.3" y1="134.9" x2="269" y2="149.7"/>
		<polyline fill="none" stroke="#000000" stroke-width="0.5" stroke-miterlimit="10" points="238,122.8 234.1,120.2 231,124.9 
			234.9,127.5 		"/>
		<line fill="none" stroke="#000000" stroke-width="0.5" stroke-miterlimit="10" x1="272.1" y1="145" x2="249.3" y2="130.2"/>
		
			<rect x="235.4" y="125.1" transform="matrix(-0.8378 -0.546 0.546 -0.8378 374.688 368.7002)" fill="none" stroke="#000000" stroke-width="0.5" stroke-miterlimit="10" width="13.5" height="7.2"/>
		<line fill="none" stroke="#000000" stroke-width="0.5" stroke-miterlimit="10" x1="241.3" y1="132.5" x2="239.5" y2="135.3"/>
		<line fill="none" stroke="#000000" stroke-width="0.5" stroke-miterlimit="10" x1="267.7" y1="151.5" x2="240.4" y2="133.7"/>
		<polyline fill="none" stroke="#000000" stroke-width="0.5" stroke-miterlimit="10" points="239.5,122.6 248.2,109.1 255.1,113.6 
			251.7,118.7 250.9,129.4 250.1,130.6 		"/>
		<polygon fill="none" stroke="#000000" stroke-width="0.5" stroke-miterlimit="10" points="248.6,126.9 241.4,122.2 244,118.2 
			249.1,121.5 		"/>
		<path fill="none" stroke="#000000" stroke-width="0.5" stroke-miterlimit="10" d="M246.1,116.8c-0.4,0.6-0.2,1.3,0.4,1.7
			c0.6,0.4,1.3,0.2,1.7-0.4l1.1-1.7c0.4-0.6,0.2-1.3-0.4-1.7s-1.3-0.2-1.7,0.4L246.1,116.8z"/>
		<path fill="none" stroke="#000000" stroke-width="0.5" stroke-miterlimit="10" d="M303.2,159.3l-9.1-5.9c-0.4-0.3-0.5-0.8-0.2-1.2
			c0.3-0.4,0.8-0.5,1.2-0.2l9.1,5.9"/>
		<path fill="none" stroke="#000000" stroke-width="0.5" stroke-miterlimit="10" d="M446.9,252.4l-2.6-10.3l-89-58l0.4-0.7
			c0.8-1.2,0.4-2.7-0.7-3.5c-1.2-0.8-2.7-0.4-3.5,0.7l-0.7,1.1c-0.3,0.4-0.8,0.5-1.2,0.2c-0.4-0.3-0.5-0.8-0.2-1.2l0.8-1.3l-2.1-1.4
			"/>
		<circle fill="none" stroke="#000000" stroke-width="0.5" stroke-miterlimit="10" cx="353.4" cy="182.3" r="1.2"/>
		<polyline fill="none" stroke="#000000" stroke-width="0.5" stroke-miterlimit="10" points="356,181.5 362.1,185.5 362.8,187.2 
			368,190.6 369.3,188.5 372.5,190.6 371.9,191.5 373.2,192.4 375.7,192 376.1,194.1 372.1,195 		"/>
		<path fill="none" stroke="#000000" stroke-width="0.5" stroke-miterlimit="10" d="M432.4,270.1l-2.2,3.3c0,0-2.6-1.8-6,3.3
			c0,0-1.6,2.3-2.9,10.8c-1.2,8.5-1.1,10.1-5,12.9s-12.6-0.3-13.8-4.1c-1.2-3.8,1.2-3.9,2.6-8.3c1.4-4.5,3.6-21.9,3.6-21.9
			s-0.3-1.2-0.9-1.8c-0.5-0.7-2.2-2.7-1.1-4.4l1.6-2.5l22.6,14.6"/>
		<line fill="none" stroke="#000000" stroke-width="0.5" stroke-miterlimit="10" x1="410.4" y1="255.6" x2="409.1" y2="257.7"/>
		<path fill="none" stroke="#000000" stroke-width="0.5" stroke-miterlimit="10" d="M403.8,250l0.7,4.1c0.1,0.5,0,1.1-0.3,1.5
			l-0.2,0.3c-0.3,0.4-0.7,0.7-1.1,0.9l-2.9,0.9c-0.5,0.1-0.7,0.6-0.6,1.1l0,0c0.1,0.4,0.6,0.7,1,0.6l3.9-0.9c0.5-0.1,1-0.4,1.3-0.9
			l0.7-1c0.3-0.5,0.4-1.1,0.3-1.7l0-0.2c-0.1-0.2,0-0.5,0.1-0.7l0,0c0.2-0.3,0.6-0.5,0.9-0.4l2.3,0.5"/>
		<polyline fill="none" stroke="#000000" stroke-width="0.5" stroke-miterlimit="10" points="395,244.6 389.5,253 390,254.7 
			403.5,263.5 405.2,263.3 406.5,261.3 		"/>
		<polyline fill="none" stroke="#000000" stroke-width="0.5" stroke-miterlimit="10" points="407.4,263.2 406,265.4 403.3,265.6 
			388,255.6 387.4,252.8 388.6,250.9 384.7,248.4 384.3,246.3 387.7,241 		"/>
		<path fill="none" stroke="#000000" stroke-width="0.5" stroke-miterlimit="10" d="M367,223.9c0,0-13.9,23.9-52.1,26l0,22.3
			c48-2.2,72.2-32.7,72.2-32.7"/>
		<path fill="none" stroke="#000000" stroke-width="0.5" stroke-miterlimit="10" d="M372,227.1c0,0-13.2,21.5-49.1,26.6"/>
		<path fill="none" stroke="#000000" stroke-width="0.5" stroke-miterlimit="10" d="M383.7,238c0,0-15,23.2-60.6,30.4"/>
		<path fill="none" stroke="#000000" stroke-width="0.5" stroke-miterlimit="10" d="M387,238.8"/>
		<path fill="none" stroke="#000000" stroke-width="0.5" stroke-miterlimit="10" d="M384.3,246.9c0,0-18.5,22.4-64.9,28.6l-4.7-3.1"
			/>
		<path fill="none" stroke="#000000" stroke-width="0.5" stroke-miterlimit="10" d="M324,258.5c0.2,0.1,0.5,0.2,0.7,0.1
			c38.5-7.4,49.7-25.5,50.2-26.2c0.3-0.5,0.1-1.1-0.3-1.3c-0.5-0.3-1.1-0.1-1.3,0.3l0,0c-0.1,0.2-11.3,18.1-48.9,25.3
			c-0.5,0.1-0.9,0.6-0.8,1.1C323.6,258.2,323.8,258.4,324,258.5z"/>
		<path fill="none" stroke="#000000" stroke-width="0.5" stroke-miterlimit="10" d="M324.4,261.5c0.2,0.1,0.5,0.2,0.7,0.1
			c38.5-7.4,51.9-26.6,52.5-27.4c0.3-0.4,0.2-1.1-0.3-1.4c-0.4-0.3-1.1-0.2-1.4,0.3c-0.1,0.2-13.6,19.3-51.2,26.6
			c-0.5,0.1-0.9,0.6-0.8,1.1C324,261.1,324.2,261.4,324.4,261.5z"/>
		<path fill="none" stroke="#000000" stroke-width="0.5" stroke-miterlimit="10" d="M324.9,264.6c0.2,0.1,0.5,0.2,0.7,0.1
			c20.1-3.9,33.8-11.4,41.9-17.1c8.7-6.2,12.6-11.3,12.8-11.6c0.3-0.4,0.2-1-0.2-1.4c-0.5-0.3-1-0.2-1.4,0.2
			c-0.2,0.2-15.8,20.6-53.5,27.9c-0.5,0.1-0.9,0.6-0.8,1.1C324.6,264.2,324.7,264.4,324.9,264.6z"/>
		<path fill="none" stroke="#000000" stroke-width="0.5" stroke-miterlimit="10" d="M321.3,270.7c0.2,0.1,0.3,0.2,0.5,0.2
			c0.5,0,1-0.5,1-1l-0.2-18.8c0-0.5-0.5-1-1-1c-0.5,0-1,0.5-1,1l0.2,18.8C320.9,270.2,321.1,270.5,321.3,270.7z"/>
		<path fill="none" stroke="#000000" stroke-width="0.5" stroke-miterlimit="10" d="M318,270.7c0.2,0.1,0.3,0.2,0.5,0.2
			c0.5,0,1-0.5,1-1l-0.3-18c0-0.5-0.5-1-1-1c-0.5,0-1,0.5-1,1l0.3,18C317.5,270.2,317.7,270.5,318,270.7z"/>
		<path fill="none" stroke="#000000" stroke-width="0.5" stroke-miterlimit="10" d="M356.1,213.8l20.9,13.6c0.8,0.5,2,0.3,2.5-0.5
			l1.2-1.8c0.5-0.8,0.3-2-0.5-2.5L359.3,209c-0.8-0.5-2-0.3-2.5,0.5l-1.2,1.8C355,212.1,355.3,213.2,356.1,213.8z"/>
		<path fill="none" stroke="#000000" stroke-width="0.5" stroke-miterlimit="10" d="M381.1,216.8l61.8,40.3c0.3,0.2,0.7,0.1,0.9-0.2
			l0.2-0.3c0.2-0.3,0.1-0.7-0.2-0.9L382,215.5c-0.3-0.2-0.7-0.1-0.9,0.2l-0.2,0.3C380.7,216.2,380.8,216.6,381.1,216.8z"/>
		<circle fill="none" stroke="#000000" stroke-width="0.5" stroke-miterlimit="10" cx="392.5" cy="236.6" r="1.4"/>
		<circle fill="none" stroke="#000000" stroke-width="0.5" stroke-miterlimit="10" cx="398.3" cy="238" r="1.4"/>
		<circle fill="none" stroke="#000000" stroke-width="0.5" stroke-miterlimit="10" cx="409.3" cy="249.1" r="1.4"/>
		<circle fill="none" stroke="#000000" stroke-width="0.5" stroke-miterlimit="10" cx="422.2" cy="246.6" r="1.4"/>
		<circle fill="none" stroke="#000000" stroke-width="0.5" stroke-miterlimit="10" cx="388.3" cy="246.6" r="1.4"/>
		<circle fill="none" stroke="#000000" stroke-width="0.5" stroke-miterlimit="10" cx="361.9" cy="204.2" r="1.4"/>
		
			<rect x="329.5" y="181.8" transform="matrix(-0.8378 -0.546 0.546 -0.8378 516.1917 519.3497)" fill="none" stroke="#000000" stroke-width="0.5" stroke-miterlimit="10" width="11.4" height="2.3"/>
		<polyline fill="none" stroke="#000000" stroke-width="0.5" stroke-miterlimit="10" points="322.4,176.4 324.3,177.2 325.5,175.3 
			324.7,174.8 		"/>
	</g>
</g>
<g>
	<path fill="none" stroke="#000000" stroke-width="0.5" stroke-miterlimit="10" d="M311,679.7c0,0-18.7-1.2-29.9,21.5
		c-11.3,22.7,8.3,91.8,23.5,112.2c0,0,2.2,2.8,6.2,2.8"/>
	<line fill="none" stroke="#000000" stroke-width="0.5" stroke-miterlimit="10" x1="299.3" y1="682.7" x2="311.1" y2="682.7"/>
	<line fill="none" stroke="#000000" stroke-width="0.5" stroke-miterlimit="10" x1="311" y1="697.1" x2="283.4" y2="697.1"/>
	<path fill="none" stroke="#000000" stroke-width="0.5" stroke-miterlimit="10" d="M310.6,711.7c0.3-0.1-32.5,0-32.5,0"/>
	<line fill="none" stroke="#000000" stroke-width="0.5" stroke-miterlimit="10" x1="287.3" y1="773.6" x2="310.9" y2="773.6"/>
	<polyline fill="none" stroke="#000000" stroke-width="0.5" stroke-miterlimit="10" points="302.1,810.1 274.8,817.1 274.4,804.5 
		292.7,790.6 	"/>
	<polyline fill="none" stroke="#000000" stroke-width="0.5" stroke-miterlimit="10" points="310.9,790.9 309.8,817.4 311.1,819.6 	
		"/>
	<path fill="none" stroke="#000000" stroke-width="0.5" stroke-miterlimit="10" d="M311.1,679.7c0,0,18.7-1.2,29.9,21.5
		c11.3,22.7-8.3,91.8-23.5,112.2c0,0-2.2,2.8-6.2,2.8"/>
	<line fill="none" stroke="#000000" stroke-width="0.5" stroke-miterlimit="10" x1="322.8" y1="682.7" x2="311" y2="682.7"/>
	<line fill="none" stroke="#000000" stroke-width="0.5" stroke-miterlimit="10" x1="311.1" y1="697.1" x2="338.7" y2="697.1"/>
	<path fill="none" stroke="#000000" stroke-width="0.5" stroke-miterlimit="10" d="M311.5,711.7c-0.3-0.1,32.5,0,32.5,0"/>
	<line fill="none" stroke="#000000" stroke-width="0.5" stroke-miterlimit="10" x1="334.8" y1="773.6" x2="311.2" y2="773.6"/>
	<polyline fill="none" stroke="#000000" stroke-width="0.5" stroke-miterlimit="10" points="320,810.1 347.2,817.1 347.7,804.5 
		329.4,790.6 	"/>
	<polyline fill="none" stroke="#000000" stroke-width="0.5" stroke-miterlimit="10" points="311.2,790.9 312.3,817.4 311,819.6 	"/>
</g>
<g>
	<line fill="none" stroke="#000000" stroke-width="0.5" stroke-miterlimit="10" x1="170.3" y1="141.6" x2="175.3" y2="135.5"/>
	<path fill="none" stroke="#000000" stroke-width="0.5" stroke-miterlimit="10" d="M165.3,142.8l-12.9,15.5c-0.2,0.3-0.3,0.6-0.3,1
		v14.8c0,0.3,0.3,0.6,0.6,0.6h0.9c0.3,0,0.6-0.3,0.6-0.6v-13.7c0-0.3,0.1-0.6,0.3-0.8l14.2-16"/>
	<line fill="none" stroke="#000000" stroke-width="0.5" stroke-miterlimit="10" x1="174.2" y1="130.9" x2="166.4" y2="141.2"/>
	<path fill="none" stroke="#000000" stroke-width="0.5" stroke-miterlimit="10" d="M189.5,151.4V129c0-0.5-0.4-1-1-1H177
		c-0.4,0-0.8,0.2-1,0.5l-0.6,0.8"/>
	<path fill="none" stroke="#000000" stroke-width="0.5" stroke-miterlimit="10" d="M175.7,147.2h-5.6c-0.3,0-0.6-0.3-0.6-0.6v-2.9"
		/>
	<line fill="none" stroke="#000000" stroke-width="0.5" stroke-miterlimit="10" x1="176.2" y1="139.1" x2="189.8" y2="139.1"/>
	<line fill="none" stroke="#000000" stroke-width="0.5" stroke-miterlimit="10" x1="175.7" y1="151.4" x2="175.7" y2="139.8"/>
	<polyline fill="none" stroke="#000000" stroke-width="0.5" stroke-miterlimit="10" points="177.2,135.5 180.6,135.5 180.6,128 	"/>
	<line fill="none" stroke="#000000" stroke-width="0.5" stroke-miterlimit="10" x1="170.8" y1="135.5" x2="175.4" y2="135.5"/>
	<polyline fill="none" stroke="#000000" stroke-width="0.5" stroke-miterlimit="10" points="186.6,128 186.6,130.8 189.5,130.8 	"/>
	<g>
		<path fill="none" stroke="#000000" stroke-width="0.5" stroke-miterlimit="10" d="M208.2,171.6c-0.3-8.4-4.6-15.7-11.1-20.1h-28.5
			c-6.5,4.4-10.9,11.8-11.1,20.2"/>
		<path fill="none" stroke="#000000" stroke-width="0.5" stroke-miterlimit="10" d="M157.6,174.7c0.9,9.9,7.4,18.2,16.4,21.5h17.7
			c8.9-3.3,15.5-11.6,16.4-21.4"/>
	</g>
	<path fill="none" stroke="#000000" stroke-width="0.5" stroke-miterlimit="10" d="M208.1,174.7c0.8,0,1.5-0.7,1.5-1.5
		s-0.7-1.5-1.5-1.5h-50.3c-0.8,0-1.5,0.7-1.5,1.5s0.7,1.5,1.5,1.5H208.1z"/>
	<path fill="none" stroke="#000000" stroke-width="0.5" stroke-miterlimit="10" d="M176.7,131.7c0.7,1.7,0.8,3.6,0.2,5.5
		c-1.3,4.6-5.8,7.3-10.1,6.1c-4.3-1.2-6.7-5.9-5.4-10.5c1.3-4.6,5.8-7.3,10.1-6.1c2,0.6,3.5,1.8,4.5,3.5 M174.5,131.3
		c-0.8-1.3-2-2.3-3.5-2.7c-3.3-0.9-6.9,1.2-7.9,4.8c-1,3.6,0.9,7.2,4.2,8.2c3.3,0.9,6.9-1.2,7.9-4.8c0.4-1.4,0.4-2.8-0.1-4"/>
	<path fill="none" stroke="#000000" stroke-width="0.5" stroke-miterlimit="10" d="M175.2,133c0,0-0.3-0.9,0.6-1.4
		c0.6-0.3,0.9-0.1,1,0.4"/>
	<path fill="none" stroke="#000000" stroke-width="0.5" stroke-miterlimit="10" d="M175.3,133.4c0,0-1.8-0.2-0.9-1.8
		c0.7-1.3,2.1-1.5,2.6-1.2c0.4,0.2,0.9,1.1-0.1,2"/>
</g>
<g>
	<line fill="none" stroke="#000000" stroke-width="0.5" stroke-miterlimit="10" x1="456.3" y1="141.6" x2="451.3" y2="135.5"/>
	<path fill="none" stroke="#000000" stroke-width="0.5" stroke-miterlimit="10" d="M461.3,142.8l12.9,15.5c0.2,0.3,0.3,0.6,0.3,1
		v14.8c0,0.3-0.3,0.6-0.6,0.6H473c-0.3,0-0.6-0.3-0.6-0.6v-13.7c0-0.3-0.1-0.6-0.3-0.8l-14.2-16"/>
	<line fill="none" stroke="#000000" stroke-width="0.5" stroke-miterlimit="10" x1="452.4" y1="130.9" x2="460.1" y2="141.2"/>
	<path fill="none" stroke="#000000" stroke-width="0.5" stroke-miterlimit="10" d="M437,151.4V129c0-0.5,0.4-1,1-1h11.6
		c0.4,0,0.8,0.2,1,0.5l0.6,0.8"/>
	<path fill="none" stroke="#000000" stroke-width="0.5" stroke-miterlimit="10" d="M450.9,147.2h5.6c0.3,0,0.6-0.3,0.6-0.6v-2.9"/>
	<line fill="none" stroke="#000000" stroke-width="0.5" stroke-miterlimit="10" x1="450.4" y1="139.1" x2="436.8" y2="139.1"/>
	<line fill="none" stroke="#000000" stroke-width="0.5" stroke-miterlimit="10" x1="450.9" y1="151.4" x2="450.9" y2="139.8"/>
	<polyline fill="none" stroke="#000000" stroke-width="0.5" stroke-miterlimit="10" points="449.3,135.5 446,135.5 446,128 	"/>
	<line fill="none" stroke="#000000" stroke-width="0.5" stroke-miterlimit="10" x1="455.8" y1="135.5" x2="451.1" y2="135.5"/>
	<polyline fill="none" stroke="#000000" stroke-width="0.5" stroke-miterlimit="10" points="440,128 440,130.8 437.1,130.8 	"/>
	<g>
		<path fill="none" stroke="#000000" stroke-width="0.5" stroke-miterlimit="10" d="M418.4,171.6c0.3-8.4,4.6-15.7,11.1-20.1H458
			c6.5,4.4,10.9,11.8,11.1,20.2"/>
		<path fill="none" stroke="#000000" stroke-width="0.5" stroke-miterlimit="10" d="M469,174.7c-0.9,9.9-7.4,18.2-16.4,21.5h-17.7
			c-8.9-3.3-15.5-11.6-16.4-21.4"/>
	</g>
	<path fill="none" stroke="#000000" stroke-width="0.5" stroke-miterlimit="10" d="M418.5,174.7c-0.8,0-1.5-0.7-1.5-1.5
		s0.7-1.5,1.5-1.5h50.3c0.8,0,1.5,0.7,1.5,1.5s-0.7,1.5-1.5,1.5H418.5z"/>
	<path fill="none" stroke="#000000" stroke-width="0.5" stroke-miterlimit="10" d="M450.6,130.3c1-1.7,2.6-3,4.5-3.5
		c4.3-1.2,8.8,1.5,10.1,6.1c1.3,4.6-1.2,9.3-5.4,10.5c-4.3,1.2-8.8-1.5-10.1-6.1c-0.5-1.9-0.4-3.8,0.2-5.5 M451.4,132.7
		c-0.4,1.3-0.5,2.6-0.1,4c1,3.6,4.5,5.7,7.9,4.8c3.3-0.9,5.2-4.6,4.2-8.2c-1-3.6-4.5-5.7-7.9-4.8c-1.5,0.4-2.7,1.4-3.5,2.7"/>
	<path fill="none" stroke="#000000" stroke-width="0.5" stroke-miterlimit="10" d="M451.4,133c0,0,0.3-0.9-0.6-1.4
		c-0.6-0.3-0.9-0.1-1,0.4"/>
	<path fill="none" stroke="#000000" stroke-width="0.5" stroke-miterlimit="10" d="M451.3,133.4c0,0,1.8-0.2,0.9-1.8
		c-0.7-1.3-2.1-1.5-2.6-1.2c-0.4,0.2-0.9,1.1,0.1,2"/>
</g>
<g>
	<path fill="none" stroke="#000000" stroke-width="0.5" stroke-miterlimit="10" d="M413.3,461.5c0,0,7.4,2.5,6.6,4.7
		c-0.8,2.2-2.8,2.9-2.8,2.9s-2,5.4-4.2,11.5c-2.2,6.1-4.8,9.4-0.3,15.2s2.7,8.8,2.7,8.8l-22,60.9c0,0-2.5,8.5-18.3,2.8l-0.1,0
		c-15.8-5.7-12.3-13.9-12.3-13.9l21.9-60.6c0,0,0.7-3.8,7.8-5.4s7.2-5.8,9.4-11.9c2.2-6.1,4.2-11.5,4.2-11.5s-1.1-1.8-0.3-4
		C406.5,458.9,413.3,461.5,413.3,461.5L413.3,461.5z"/>
	<path fill="none" stroke="#000000" stroke-width="0.5" stroke-miterlimit="10" d="M415.4,468.9c0,0-2.7,7.5-4.8,13.2
		c-2.1,5.8-3.5,9.3,0.5,14.6c4,5.3,2.3,8.2,2.3,8.2l-20.8,57.5c0,0-2.4,8-16.6,2.9l-0.1,0c-14.3-5.2-11-12.8-11-12.8l20.8-57.5
		c0,0,0.6-3.3,7.1-4.8s7.6-5.2,9.7-10.9s4.8-13.2,4.8-13.2S411.7,464.7,415.4,468.9z"/>
	<path fill="none" stroke="#000000" stroke-width="0.5" stroke-miterlimit="10" d="M407.1,463.6c0,0,6.3-0.6,10.1,3.6"/>
	<path fill="none" stroke="#000000" stroke-width="0.5" stroke-miterlimit="10" d="M405.7,470.7c-0.2,1.5-0.4,3.1-0.6,4.6
		c-1.8,10.2-8.3,18.8-15.5,26.2c-1.3,1.4-2.7,2.7-3.8,4.3c-1.7,2.4-2.8,5.1-3.7,7.9c-1.9,5.9-2.7,12-2.6,18.2c0,0.5,0.1,0.1,0.6,0.4
		c0.5,0.2,1,0.4,1.5,0.6c1.8,1,2.1,3.9,4.1,4.6c0.2,0.1,0.4,0.1,0.5,0.2c0.1,0,0.3,0.3,0.4,0.2c0,0,0.1-0.1,0.1-0.1
		c0.1-0.2,0.1-0.4,0.1-0.6c0-0.2,0.1-0.4,0.1-0.5c0-0.5,0-1,0-1.5c0-1,0-2,0-3c0-1.3,0-2.6,0.1-3.9c0.1-4.2,0.1-8.4,1.5-12.4
		c2.7-7.7,9.9-13.1,12.6-20.8c0.7-2,1.1-4.1,1.7-6.2c2.2-7.6,7.4-15,7.2-22.9"/>
	<path fill="none" stroke="#000000" stroke-width="0.5" stroke-miterlimit="10" d="M408.6,489.9c-1.4,3.3-3.5,9.1-4.4,12.6
		c-0.9,3.4-1.8,6.8-2.6,10.2c-0.9,3.8-0.2,7.6-0.4,11.4c-0.2,3.5-1.7,6.8-2.8,10.1c-0.1,0.2-0.1,0.4-0.3,0.5
		c-0.3,0.3-0.9,0.2-1.3-0.1c-0.3-0.3-0.5-0.8-0.7-1.2c-0.9-1.9-3.1-3.1-5.2-2.9c-2.1,0.2-3.5,1.1-4.1,3.1"/>
	<path fill="none" stroke="#000000" stroke-width="0.5" stroke-miterlimit="10" d="M409.3,460.5c-3.7-4.4-2.7-11.3,0.6-15.9
		s8.5-7.6,13.4-10.5c1.1-0.7,2.3-1.3,3.6-1.5c1-0.2,1.1-0.7,2.1-0.5c2.9,0.7,6.2,1.5,8.6,1.3"/>
	<path fill="none" stroke="#000000" stroke-width="0.5" stroke-miterlimit="10" d="M419.6,465.1c2.7-1.2,4.6-3.5,6.5-5.6
		c2.5-2.8,6.1-3.9,9.7-4c13.4-0.4,19.6-6.1,25-8.7c0.8-0.4,1.9-1.8,2.3-2.8"/>
	<path fill="none" stroke="#000000" stroke-width="0.5" stroke-miterlimit="10" d="M413.2,461.4c-0.8-2.4,0.2-4.7,1.2-6.9
		c0.6-1.3,1.5-3,2.4-4c1.2-1.3,2.9-2.1,4.5-2.8"/>
	<path fill="none" stroke="#000000" stroke-width="0.5" stroke-miterlimit="10" d="M431.1,437.3c1.9-1.2,4.1-2.4,6.5-3.9"/>
	<path fill="none" stroke="#000000" stroke-width="0.5" stroke-miterlimit="10" d="M426.2,445.8c2.7-3.5,7.4-4.6,11.8-5.4
		c4.3-0.8,9-1.4,12.4-4.3"/>
	<path fill="none" stroke="#000000" stroke-width="0.5" stroke-miterlimit="10" d="M421,444.1c5.6-3.5,9.1-7.5,16.9-9.6
		c2.8-0.8,6.1-2,9-2.6c1.1-0.2,2-0.6,3.1-0.7c1.3-0.1,3.2-0.6,4.4-0.3c0.6,0.1,1.8,0.8,1.7,1.4c-0.1,0.1-1.4,0.6-1.5,0.6"/>
	<path fill="none" stroke="#000000" stroke-width="0.5" stroke-miterlimit="10" d="M463.1,444c-1.1,0.1-2.1,0.5-3.2,0.2
		c-1.2-0.4-1.5-1.3-2.2-2.2c-0.4-0.6-1.4-0.7-2.1-0.6"/>
	<path fill="none" stroke="#000000" stroke-width="0.5" stroke-miterlimit="10" d="M454.6,433c0.4-0.3,1-0.3,1.5-0.1
		c0.2,0.1,0.4,0.1,0.6,0.2c0.7,0.4,0.8,0.9,1.2,1.5c0.3,0.4,0.7,0.7,1.2,0.9c0.2,0.1,0.8,0.1,0.9,0.3c0.1,0.3-0.3,0.8-0.5,0.9
		c-0.5,0.6-1.3,0.9-2,1.3c-0.2,0.1-0.4,0.3-0.5,0.5c0,0.2,0,0.3,0,0.5c0.1,0.7,0.8,1.8,0.1,2.1c-0.7,0.3-1.4,0.2-2.1,0.3
		c-3.3,0.6-6.4,1.7-9.4,3.2c-3.1,1.5-6.6,1.8-9.9,2.6"/>
	<path fill="none" stroke="#000000" stroke-width="0.5" stroke-miterlimit="10" d="M433,452.7c0.7-0.9,1.7-1.6,2.8-1.9
		c1-0.3,2-0.4,3.1-0.6c2.3-0.3,4.4,0.4,6.7-0.5c1.4-0.5,2.6-1.4,3.9-2.1c1.3-0.7,2.8-1.1,4.2-0.7"/>
	<path fill="none" stroke="#000000" stroke-width="0.5" stroke-miterlimit="10" d="M410.7,460.8c-0.9-2.8-1.2-4.3-0.9-6.3
		c0.1-0.4,0.1-0.8,0.4-1c0.5-0.5,1.2-0.5,1.8-0.2c0.2,0.1,0.6,0.6,0.7,0.8c0.1,0.1,0.1,0.3,0.1,0.4c-0.1,2.3-1.4,4.1-1.1,6.4"/>
	<path fill="none" stroke="#000000" stroke-width="0.5" stroke-miterlimit="10" d="M416.2,462.7c-0.1-1.3,0.7-3.4,1.7-4.3
		c0.8-0.8,1.9-1.4,3-1.5c1.6-0.2,1.3,1.7,0.4,2.5c-0.5,0.5-1.3,0.7-1.9,1c-1,0.4-2.3,1.5-2.2,2.8"/>
	<path fill="none" stroke="#000000" stroke-width="0.5" stroke-miterlimit="10" d="M401,526.4c1.1,1,2.2,2.2,3.3,3.6"/>
	<path fill="none" stroke="#000000" stroke-width="0.5" stroke-miterlimit="10" d="M376.8,520.2c0,0,1.3-0.4,3.5-0.6"/>
	<path fill="none" stroke="#000000" stroke-width="0.5" stroke-miterlimit="10" d="M376.3,521.9c0,0,9,13.8,27.3,10.1"/>
</g>
<g>
	<path fill="none" stroke="#000000" stroke-width="0.5" stroke-miterlimit="10" d="M206,459.5c0,0-7.4,2.5-6.6,4.7
		c0.8,2.2,2.8,2.9,2.8,2.9s2,5.4,4.2,11.5c2.2,6.1,4.8,9.4,0.3,15.2c-4.4,5.7-2.7,8.8-2.7,8.8l22,60.9c0,0,2.5,8.5,18.3,2.8l0.1,0
		c15.8-5.7,12.3-13.9,12.3-13.9l-21.9-60.6c0,0-0.7-3.8-7.8-5.4s-7.2-5.8-9.4-11.9c-2.2-6.1-4.2-11.5-4.2-11.5s1.1-1.8,0.3-4
		C212.9,456.9,206,459.5,206,459.5L206,459.5z"/>
	<path fill="none" stroke="#000000" stroke-width="0.5" stroke-miterlimit="10" d="M203.9,466.9c0,0,2.7,7.5,4.8,13.2
		c2.1,5.8,3.5,9.3-0.5,14.6s-2.3,8.2-2.3,8.2l20.8,57.5c0,0,2.4,8,16.6,2.9l0.1,0c14.3-5.2,11-12.8,11-12.8L233.5,493
		c0,0-0.6-3.3-7.1-4.8s-7.6-5.2-9.7-10.9c-2.1-5.8-4.8-13.2-4.8-13.2S207.6,462.7,203.9,466.9z"/>
	<path fill="none" stroke="#000000" stroke-width="0.5" stroke-miterlimit="10" d="M212.2,461.6c0,0-6.3-0.6-10.1,3.6"/>
	<path fill="none" stroke="#000000" stroke-width="0.5" stroke-miterlimit="10" d="M213.7,468.7c0.2,1.5,0.4,3.1,0.6,4.6
		c1.8,10.2,8.3,18.8,15.5,26.2c1.3,1.4,2.7,2.7,3.8,4.3c1.7,2.4,2.8,5.1,3.7,7.9c1.9,5.9,2.7,12,2.6,18.2c0,0.5-0.1,0.1-0.6,0.4
		c-0.5,0.2-1,0.4-1.5,0.6c-1.8,1-2.1,3.9-4.1,4.6c-0.2,0.1-0.4,0.1-0.5,0.2c-0.1,0-0.3,0.3-0.4,0.2c0,0-0.1-0.1-0.1-0.1
		c-0.1-0.2-0.1-0.4-0.1-0.6c0-0.2-0.1-0.4-0.1-0.5c0-0.5,0-1,0-1.5c0-1,0-2,0-3c0-1.3,0-2.6-0.1-3.9c-0.1-4.2-0.1-8.4-1.5-12.4
		c-2.7-7.7-9.9-13.1-12.6-20.8c-0.7-2-1.1-4.1-1.7-6.2c-2.2-7.6-7.4-15-7.2-22.9"/>
	<path fill="none" stroke="#000000" stroke-width="0.5" stroke-miterlimit="10" d="M210.7,487.9c1.4,3.3,3.5,9.1,4.4,12.6
		c0.9,3.4,1.8,6.8,2.6,10.2c0.9,3.8,0.2,7.6,0.4,11.4c0.2,3.5,1.7,6.8,2.8,10.1c0.1,0.2,0.1,0.4,0.3,0.5c0.3,0.3,0.9,0.2,1.3-0.1
		c0.3-0.3,0.5-0.8,0.7-1.2c0.9-1.9,3.1-3.1,5.2-2.9c2.1,0.2,3.5,1.1,4.1,3.1"/>
	<path fill="none" stroke="#000000" stroke-width="0.5" stroke-miterlimit="10" d="M210,458.5c3.7-4.4,2.7-11.3-0.6-15.9
		c-3.3-4.7-8.5-7.6-13.4-10.5c-1.1-0.7-2.3-1.3-3.6-1.5c-1-0.2-1.1-0.7-2.1-0.5c-2.9,0.7-6.2,1.5-8.6,1.3"/>
	<path fill="none" stroke="#000000" stroke-width="0.5" stroke-miterlimit="10" d="M199.8,463.1c-2.7-1.2-4.6-3.5-6.5-5.6
		c-2.5-2.8-6.1-3.9-9.7-4c-13.4-0.4-19.6-6.1-25-8.7c-0.8-0.4-1.9-1.8-2.3-2.8"/>
	<path fill="none" stroke="#000000" stroke-width="0.5" stroke-miterlimit="10" d="M206.2,459.4c0.8-2.4-0.2-4.7-1.2-6.9
		c-0.6-1.3-1.5-3-2.4-4c-1.2-1.3-2.9-2.1-4.5-2.8"/>
	<path fill="none" stroke="#000000" stroke-width="0.5" stroke-miterlimit="10" d="M188.3,435.3c-1.9-1.2-4.1-2.4-6.5-3.9"/>
	<path fill="none" stroke="#000000" stroke-width="0.5" stroke-miterlimit="10" d="M193.2,443.8c-2.7-3.5-7.4-4.6-11.8-5.4
		s-9-1.4-12.4-4.3"/>
	<path fill="none" stroke="#000000" stroke-width="0.5" stroke-miterlimit="10" d="M198.3,442.1c-5.6-3.5-9.1-7.5-16.9-9.6
		c-2.8-0.8-6.1-2-9-2.6c-1.1-0.2-2-0.6-3.1-0.7c-1.3-0.1-3.2-0.6-4.4-0.3c-0.6,0.1-1.8,0.8-1.7,1.4c0.1,0.1,1.4,0.6,1.5,0.6"/>
	<path fill="none" stroke="#000000" stroke-width="0.5" stroke-miterlimit="10" d="M156.3,442c1.1,0.1,2.1,0.5,3.2,0.2
		c1.2-0.4,1.5-1.3,2.2-2.2c0.4-0.6,1.4-0.7,2.1-0.6"/>
	<path fill="none" stroke="#000000" stroke-width="0.5" stroke-miterlimit="10" d="M164.7,431c-0.4-0.3-1-0.3-1.5-0.1
		c-0.2,0.1-0.4,0.1-0.6,0.2c-0.7,0.4-0.8,0.9-1.2,1.5c-0.3,0.4-0.7,0.7-1.2,0.9c-0.2,0.1-0.8,0.1-0.9,0.3c-0.1,0.3,0.3,0.8,0.5,0.9
		c0.5,0.6,1.3,0.9,2,1.3c0.2,0.1,0.4,0.3,0.5,0.5c0,0.2,0,0.3,0,0.5c-0.1,0.7-0.8,1.8-0.1,2.1c0.7,0.3,1.4,0.2,2.1,0.3
		c3.3,0.6,6.4,1.7,9.4,3.2c3.1,1.5,6.6,1.8,9.9,2.6"/>
	<path fill="none" stroke="#000000" stroke-width="0.5" stroke-miterlimit="10" d="M186.4,450.7c-0.7-0.9-1.7-1.6-2.8-1.9
		c-1-0.3-2-0.4-3.1-0.6c-2.3-0.3-4.4,0.4-6.7-0.5c-1.4-0.5-2.6-1.4-3.9-2.1s-2.8-1.1-4.2-0.7"/>
	<path fill="none" stroke="#000000" stroke-width="0.5" stroke-miterlimit="10" d="M208.7,458.8c0.9-2.8,1.2-4.3,0.9-6.3
		c-0.1-0.4-0.1-0.8-0.4-1c-0.5-0.5-1.2-0.5-1.8-0.2c-0.2,0.1-0.6,0.6-0.7,0.8c-0.1,0.1-0.1,0.3-0.1,0.4c0.1,2.3,1.4,4.1,1.1,6.4"/>
	<path fill="none" stroke="#000000" stroke-width="0.5" stroke-miterlimit="10" d="M203.2,460.7c0.1-1.3-0.7-3.4-1.7-4.3
		c-0.8-0.8-1.9-1.4-3-1.5c-1.6-0.2-1.3,1.7-0.4,2.5c0.5,0.5,1.3,0.7,1.9,1c1,0.4,2.3,1.5,2.2,2.8"/>
	<path fill="none" stroke="#000000" stroke-width="0.5" stroke-miterlimit="10" d="M218.4,524.4c-1.1,1-2.2,2.2-3.3,3.6"/>
	<path fill="none" stroke="#000000" stroke-width="0.5" stroke-miterlimit="10" d="M242.5,518.2c0,0-1.3-0.4-3.5-0.6"/>
	<path fill="none" stroke="#000000" stroke-width="0.5" stroke-miterlimit="10" d="M243.1,519.9c0,0-9,13.8-27.3,10.1"/>
</g>
<g>
	<path fill="none" stroke="#000000" stroke-width="0.5" stroke-miterlimit="10" d="M288.6,73.8c2.1,0.2,4.1-0.6,6-1.6
		c1.8-1,3.5-2.3,5.4-3.2c1.9-0.9,4.7-1.3,6.7-0.7"/>
	<path fill="none" stroke="#000000" stroke-width="0.5" stroke-miterlimit="10" d="M295.8,91.1c2.2-1.2,4.7-1.3,7.2-1.4
		c1.1,0,2.3,0,3.2,0.6"/>
	<path fill="none" stroke="#000000" stroke-width="0.5" stroke-miterlimit="10" d="M291.3,73.7c-4.2-3.7-7.1-8.6-9.3-13.6
		c-2.1-4.6-4.2-9.1-5.8-13.9c-1.2-3.8-1.9-9,0.1-12.7c1.4-2.4,4.4-3.2,7-3.1c3.7,0.2,7.3,1.1,10.8,2.3c4.4,1.5,9,2.9,12.5,5.9
		c1.5,1.3,3.7,3.6,3.6,5.7c0,1.3,0.2,2.5,0.2,3.8c0.1,1.2-0.1,2.2-0.1,3.4c0.2,4.4,0.4,6.4,0.2,10.8"/>
	<path fill="none" stroke="#000000" stroke-width="0.5" stroke-miterlimit="10" d="M289.1,74c2.5,0,5-0.5,7.3-1.6
		c1.7-0.8,3.3-2,5-2.8s3.3-1.6,5.2-1.3"/>
	<path fill="none" stroke="#000000" stroke-width="0.5" stroke-miterlimit="10" d="M280.2,50.3c-1.4-3-2.1-6.3-2.1-9.6
		c0-1.6,0.2-3.4,1.5-4.3c1-0.8,2.7-1.2,4-1.2c2,0,8,1,9.8,1.8"/>
	<path fill="none" stroke="#000000" stroke-width="0.5" stroke-miterlimit="10" d="M287.7,69.4c-1.5-2.3-3.1-4.6-4.2-7.1
		c-2.3-5.1-4.9-10.2-6.4-15.6c-0.9-3.3-1.3-7.1-0.5-10.5c0.3-1,0.6-2.1,1.3-2.9c1.3-1.5,3.5-1.7,5.4-1.8c4-0.1,7.8,0.8,11.6,2
		c3.5,1.1,7.3,2.3,10.5,4.3"/>
	<path fill="none" stroke="#000000" stroke-width="0.5" stroke-miterlimit="10" d="M280.5,50.6c-1.6-3.3-2.2-8.8-0.8-12.3
		c0.8-1.9,2.7-2.1,4.5-2.2c2.9-0.2,5.6,0,8.5,0.6"/>
	<path fill="none" stroke="#000000" stroke-width="0.5" stroke-miterlimit="10" d="M306.5,54.5c0.4-1.3,1-3,0.8-4.4
		c-0.2-1.2-0.7-2.3-1.4-3.4c-1.4-2-3.4-3.5-5.5-4.7c-3.6-2-7.6-3.3-11.5-4.2c-2-0.5-7.7-1.8-8.2,1.4c-0.5,3.5-0.1,7.1,0.8,10.5
		c0.8,2.9,1.7,5.8,3,8.5c0.9,1.9,2,3.7,3.3,5.3c0.8,1,1.5,1.6,2.5,2.3c2.9,2,6.5,0.5,9-1.5c1.7-1.3,3.4-2.9,4.6-4.6
		C304.9,58.1,305.9,56.4,306.5,54.5z"/>
	<path fill="none" stroke="#000000" stroke-width="0.5" stroke-miterlimit="10" d="M282.1,37.7c-0.3,0.3-0.5,0.7-0.6,1
		c-0.2,0.5-0.2,1.1-0.3,1.7c-0.2,3.5,0.6,6.9,1.8,10.1c0.7,1.9,1.4,3.8,2.4,5.5c0.8,1.3,1.6,2.7,2.4,4c0.9,1.5,2.1,3.1,3.7,4
		c2.4,1.4,5.3,0.3,7.4-1.2c1.6-1.2,3-2.6,4.3-4.2c1.1-1.5,1.9-3.1,2.5-4.8c0.6-1.6,1.3-3.4,1-5.2"/>
	<path fill="none" stroke="#000000" stroke-width="0.5" stroke-miterlimit="10" d="M281.1,52.8c0.7,2.8,1.6,5.6,3,8.2
		c1,1.8,2.2,3.4,3.7,4.7c1.6,1.4,4,2.6,6.2,2.5c3.3-0.2,6.2-2.4,8.5-4.6c1.7-1.7,3.3-3.7,4.4-5.8c0.6-1.1,1.1-2.2,1.4-3.4
		c0.4-1.5,0.7-3.1,0.5-4.6c-0.2-1.2-0.3-2.6-0.8-3.7c-0.5-1.1-1.5-2-2.4-2.8c-1.4-1.3-3.2-2.2-4.9-3c-1.6-0.7-3.2-1.3-4.9-1.7"/>
	<path fill="none" stroke="#000000" stroke-width="0.5" stroke-miterlimit="10" d="M276.8,32.8c0.4-2.2,0.8-4.2,1.7-6.3
		c1.5-3.7,3.6-7.1,6.2-10.1c5.7-6.2,13.9-9.1,22.1-9.8c1.4-0.1,2.8-0.2,4.2-0.2"/>
	<path fill="none" stroke="#000000" stroke-width="0.5" stroke-miterlimit="10" d="M277.6,31.8c0.1-0.4,0.2-0.8,0.3-1.2
		c0.6-2,1.5-3.9,2.5-5.7c2-3.4,4.4-6.8,7.4-9.5c2.1-1.9,4.5-3.2,7-4.5c1.1-0.6,2.2-1.1,3.4-1.6c1-0.4,2-0.5,3-0.9
		c3.2-1.1,6.5-1.8,9.9-1.8"/>
	<path fill="none" stroke="#000000" stroke-width="0.5" stroke-miterlimit="10" d="M278.6,29.3c0-0.1,0.1-0.2,0.2-0.2
		c1.1-0.3,2.2-0.8,3.4-0.8c1.2-0.1,2.4,0.2,3.6,0.3c2.8,0.4,5.5,1.3,8.3,2.1c4.5,1.4,8.7,3.5,13,5.7"/>
	<path fill="none" stroke="#000000" stroke-width="0.5" stroke-miterlimit="10" d="M277.7,109.9l16.5-7.7c0,0,1-6.7-5-19.2
		s-9.8-15.2-10.4-15.2s-16.6,7.6-16.6,7.6l0.4,10.8c0,0,5.6,14.2,7.3,16.4C271.6,104.7,277.7,109.9,277.7,109.9z"/>
	<path fill="none" stroke="#000000" stroke-width="0.5" stroke-miterlimit="10" d="M262.6,85.4c0,0,5.9,9.1,7.9,17.9"/>
	<path fill="none" stroke="#000000" stroke-width="0.5" stroke-miterlimit="10" d="M262.2,75.4c0,0,10.1,15.3,15.4,34.6"/>
	<path fill="none" stroke="#000000" stroke-width="0.5" stroke-miterlimit="10" d="M268.9,77.2c0,0,7.8,11.8,11.9,26.6"/>
	<path fill="none" stroke="#000000" stroke-width="0.5" stroke-miterlimit="10" d="M270.7,76.4c0,0,7.8,11.8,11.9,26.6"/>
	<path fill="none" stroke="#000000" stroke-width="0.5" stroke-miterlimit="10" d="M275.7,73.5c0,0,7.8,11.8,11.9,26.6"/>
	<path fill="none" stroke="#000000" stroke-width="0.5" stroke-miterlimit="10" d="M295.6,88.4c0.2,0.8,0.7,2.3,0,3
		c-0.7,0.8-1.4-0.3-1.5-0.9c-0.1-0.7-0.1-1.4-0.3-2.1c-0.3-0.8-0.5-1.6-0.8-2.4c-0.4-1.1-1-2-1.5-3.1c-0.9-2-1.9-4.1-3-6
		c-0.2-0.4-1.7-2.7-1.1-3.1c0.9-0.6,1.2,0.3,1.5,0.8c0.6,1,1.1,2,1.8,2.9c0.8,1.2,1.3,2.5,2,3.8c0.8,1.5,1.5,3.1,2.2,4.7
		C295.1,86.8,295.4,87.6,295.6,88.4z"/>
	<path fill="none" stroke="#000000" stroke-width="0.5" stroke-miterlimit="10" d="M285.9,76.3c0.6-0.3,1.2-0.6,1.7-1"/>
	<path fill="none" stroke="#000000" stroke-width="0.5" stroke-miterlimit="10" d="M292.4,90.9c0.6-0.4,1-0.6,1.6-0.9"/>
	<path fill="none" stroke="#000000" stroke-width="0.5" stroke-miterlimit="10" d="M311,107.7c-10.5,0-10.8-5.1-10.8-5.1V95v-1.5
		c0,0-0.1-3.7,10.9-3.7"/>
	<path fill="none" stroke="#000000" stroke-width="0.5" stroke-miterlimit="10" d="M300.2,102.7c0,0-0.1-4.6,11-4.6"/>
	<path fill="none" stroke="#000000" stroke-width="0.5" stroke-miterlimit="10" d="M310.4,107.2c0,0-4-0.1-5.8-2.1
		c-1.8-2,3.3-3.7,6.3-3.7"/>
	<path fill="none" stroke="#000000" stroke-width="0.5" stroke-miterlimit="10" d="M304.8,103.1c0,0-1.7,3,5.9,3"/>
	<line fill="none" stroke="#000000" stroke-width="0.5" stroke-miterlimit="10" x1="305.9" y1="80.6" x2="306.6" y2="90"/>
	<path fill="none" stroke="#000000" stroke-width="0.5" stroke-miterlimit="10" d="M306.6,69.3c0,0-0.2-3.9,2-3.9s2.3,0,2.3,0"/>
	<path fill="none" stroke="#000000" stroke-width="0.5" stroke-miterlimit="10" d="M308.2,65.3c0,0,0.4-3,2.9-3"/>
	<path fill="none" stroke="#000000" stroke-width="0.5" stroke-miterlimit="10" d="M285.9,15.4l-4-3.5c0,0-0.9-0.5-2.4,0.7l-1.7,1.9
		c-1,1.6-0.4,2.4-0.4,2.4l4,3.5"/>
	<path fill="none" stroke="#000000" stroke-width="0.5" stroke-miterlimit="10" d="M279.6,55.2l-4.9,2.3c0,0-0.8,0.6-0.3,2.4
		l1.1,2.3c1.1,1.6,2.1,1.3,2.1,1.3l4.9-2.3"/>
	<path fill="none" stroke="#000000" stroke-width="0.5" stroke-miterlimit="10" d="M333.2,73.8c-2.1,0.2-4.1-0.6-6-1.6
		c-1.8-1-3.5-2.3-5.4-3.2c-1.9-0.9-4.7-1.3-6.7-0.7"/>
	<path fill="none" stroke="#000000" stroke-width="0.5" stroke-miterlimit="10" d="M326.1,91.1c-2.2-1.2-4.7-1.3-7.2-1.4
		c-1.1,0-2.3,0-3.2,0.6"/>
	<path fill="none" stroke="#000000" stroke-width="0.5" stroke-miterlimit="10" d="M330.5,73.7c4.2-3.7,7.1-8.6,9.3-13.6
		c2.1-4.6,4.2-9.1,5.8-13.9c1.2-3.8,1.9-9-0.1-12.7c-1.4-2.4-4.4-3.2-7-3.1c-3.7,0.2-7.3,1.1-10.8,2.3c-4.4,1.5-9,2.9-12.5,5.9
		c-1.5,1.3-3.7,3.6-3.6,5.7c0,1.3-0.2,2.5-0.2,3.8c-0.1,1.2,0.1,2.2,0.1,3.4c-0.2,4.4-0.4,6.4-0.2,10.8"/>
	<path fill="none" stroke="#000000" stroke-width="0.5" stroke-miterlimit="10" d="M332.7,74c-2.5,0-5-0.5-7.3-1.6
		c-1.7-0.8-3.3-2-5-2.8s-3.3-1.6-5.2-1.3"/>
	<path fill="none" stroke="#000000" stroke-width="0.5" stroke-miterlimit="10" d="M341.7,50.3c1.4-3,2.1-6.3,2.1-9.6
		c0-1.6-0.2-3.4-1.5-4.3c-1-0.8-2.7-1.2-4-1.2c-2,0-8,1-9.8,1.8"/>
	<path fill="none" stroke="#000000" stroke-width="0.5" stroke-miterlimit="10" d="M334.2,69.4c1.5-2.3,3.1-4.6,4.2-7.1
		c2.3-5.1,4.9-10.2,6.4-15.6c0.9-3.3,1.3-7.1,0.5-10.5c-0.3-1-0.6-2.1-1.3-2.9c-1.3-1.5-3.5-1.7-5.4-1.8c-4-0.1-7.8,0.8-11.6,2
		c-3.5,1.1-7.3,2.3-10.5,4.3"/>
	<path fill="none" stroke="#000000" stroke-width="0.5" stroke-miterlimit="10" d="M341.4,50.6c1.6-3.3,2.2-8.8,0.8-12.3
		c-0.8-1.9-2.7-2.1-4.5-2.2c-2.9-0.2-5.6,0-8.5,0.6"/>
	<path fill="none" stroke="#000000" stroke-width="0.5" stroke-miterlimit="10" d="M315.3,54.5c-0.4-1.3-1-3-0.8-4.4
		c0.2-1.2,0.7-2.3,1.4-3.4c1.4-2,3.4-3.5,5.5-4.7c3.6-2,7.6-3.3,11.5-4.2c2-0.5,7.7-1.8,8.2,1.4c0.5,3.5,0.1,7.1-0.8,10.5
		c-0.8,2.9-1.7,5.8-3,8.5c-0.9,1.9-2,3.7-3.3,5.3c-0.8,1-1.5,1.6-2.5,2.3c-2.9,2-6.5,0.5-9-1.5c-1.7-1.3-3.4-2.9-4.6-4.6
		C316.9,58.1,315.9,56.4,315.3,54.5z"/>
	<path fill="none" stroke="#000000" stroke-width="0.5" stroke-miterlimit="10" d="M339.8,37.7c0.3,0.3,0.5,0.7,0.6,1
		c0.2,0.5,0.2,1.1,0.3,1.7c0.2,3.5-0.6,6.9-1.8,10.1c-0.7,1.9-1.4,3.8-2.4,5.5c-0.8,1.3-1.6,2.7-2.4,4c-0.9,1.5-2.1,3.1-3.7,4
		c-2.4,1.4-5.3,0.3-7.4-1.2c-1.6-1.2-3-2.6-4.3-4.2c-1.1-1.5-1.9-3.1-2.5-4.8c-0.6-1.6-1.3-3.4-1-5.2"/>
	<path fill="none" stroke="#000000" stroke-width="0.5" stroke-miterlimit="10" d="M340.7,52.8c-0.7,2.8-1.6,5.6-3,8.2
		c-1,1.8-2.2,3.4-3.7,4.7c-1.6,1.4-4,2.6-6.2,2.5c-3.3-0.2-6.2-2.4-8.5-4.6c-1.7-1.7-3.3-3.7-4.4-5.8c-0.6-1.1-1.1-2.2-1.4-3.4
		c-0.4-1.5-0.7-3.1-0.5-4.6c0.2-1.2,0.3-2.6,0.8-3.7c0.5-1.1,1.5-2,2.4-2.8c1.4-1.3,3.2-2.2,4.9-3c1.6-0.7,3.2-1.3,4.9-1.7"/>
	<path fill="none" stroke="#000000" stroke-width="0.5" stroke-miterlimit="10" d="M345.1,32.8c-0.4-2.2-0.8-4.2-1.7-6.3
		c-1.5-3.7-3.6-7.1-6.2-10.1c-5.7-6.2-13.9-9.1-22.1-9.8c-1.4-0.1-2.8-0.2-4.2-0.2"/>
	<path fill="none" stroke="#000000" stroke-width="0.5" stroke-miterlimit="10" d="M344.2,31.8c-0.1-0.4-0.2-0.8-0.3-1.2
		c-0.6-2-1.5-3.9-2.5-5.7c-2-3.4-4.4-6.8-7.4-9.5c-2.1-1.9-4.5-3.2-7-4.5c-1.1-0.6-2.2-1.1-3.4-1.6c-1-0.4-2-0.5-3-0.9
		c-3.2-1.1-6.5-1.8-9.9-1.8"/>
	<path fill="none" stroke="#000000" stroke-width="0.5" stroke-miterlimit="10" d="M343.3,29.3c0-0.1-0.1-0.2-0.2-0.2
		c-1.1-0.3-2.2-0.8-3.4-0.8c-1.2-0.1-2.4,0.2-3.6,0.3c-2.8,0.4-5.5,1.3-8.3,2.1c-4.5,1.4-8.7,3.5-13,5.7"/>
	<path fill="none" stroke="#000000" stroke-width="0.5" stroke-miterlimit="10" d="M344.2,109.9l-16.5-7.7c0,0-1-6.7,5-19.2
		s9.8-15.2,10.4-15.2s16.6,7.6,16.6,7.6l-0.4,10.8c0,0-5.6,14.2-7.3,16.4C350.3,104.7,344.2,109.9,344.2,109.9z"/>
	<path fill="none" stroke="#000000" stroke-width="0.5" stroke-miterlimit="10" d="M359.3,85.4c0,0-5.9,9.1-7.9,17.9"/>
	<path fill="none" stroke="#000000" stroke-width="0.5" stroke-miterlimit="10" d="M359.6,75.4c0,0-10.1,15.3-15.4,34.6"/>
	<path fill="none" stroke="#000000" stroke-width="0.5" stroke-miterlimit="10" d="M353,77.2c0,0-7.8,11.8-11.9,26.6"/>
	<path fill="none" stroke="#000000" stroke-width="0.5" stroke-miterlimit="10" d="M351.2,76.4c0,0-7.8,11.8-11.9,26.6"/>
	<path fill="none" stroke="#000000" stroke-width="0.5" stroke-miterlimit="10" d="M346.2,73.5c0,0-7.8,11.8-11.9,26.6"/>
	<path fill="none" stroke="#000000" stroke-width="0.5" stroke-miterlimit="10" d="M326.3,88.4c-0.2,0.8-0.7,2.3,0,3
		c0.7,0.8,1.4-0.3,1.5-0.9c0.1-0.7,0.1-1.4,0.3-2.1c0.3-0.8,0.5-1.6,0.8-2.4c0.4-1.1,1-2,1.5-3.1c0.9-2,1.9-4.1,3-6
		c0.2-0.4,1.7-2.7,1.1-3.1c-0.9-0.6-1.2,0.3-1.5,0.8c-0.6,1-1.1,2-1.8,2.9c-0.8,1.2-1.3,2.5-2,3.8c-0.8,1.5-1.5,3.1-2.2,4.7
		C326.7,86.8,326.5,87.6,326.3,88.4z"/>
	<path fill="none" stroke="#000000" stroke-width="0.5" stroke-miterlimit="10" d="M335.9,76.3c-0.6-0.3-1.2-0.6-1.7-1"/>
	<path fill="none" stroke="#000000" stroke-width="0.5" stroke-miterlimit="10" d="M329.4,90.9c-0.6-0.4-1-0.6-1.6-0.9"/>
	<path fill="none" stroke="#000000" stroke-width="0.5" stroke-miterlimit="10" d="M310.9,107.7c10.5,0,10.8-5.1,10.8-5.1V95v-1.5
		c0,0,0.1-3.7-10.9-3.7"/>
	<path fill="none" stroke="#000000" stroke-width="0.5" stroke-miterlimit="10" d="M321.6,102.7c0,0,0.1-4.6-11-4.6"/>
	<path fill="none" stroke="#000000" stroke-width="0.5" stroke-miterlimit="10" d="M311.5,107.2c0,0,4-0.1,5.8-2.1
		c1.8-2-3.3-3.7-6.3-3.7"/>
	<path fill="none" stroke="#000000" stroke-width="0.5" stroke-miterlimit="10" d="M317.1,103.1c0,0,1.7,3-5.9,3"/>
	<circle fill="none" stroke="#000000" stroke-width="0.5" stroke-miterlimit="10" cx="310.8" cy="74.5" r="6.2"/>
	<circle fill="none" stroke="#000000" stroke-width="0.5" stroke-miterlimit="10" cx="310.8" cy="75.2" r="7.2"/>
	<line fill="none" stroke="#000000" stroke-width="0.5" stroke-miterlimit="10" x1="316" y1="80.6" x2="315.3" y2="90"/>
	<path fill="none" stroke="#000000" stroke-width="0.5" stroke-miterlimit="10" d="M315.2,69.3c0,0,0.2-3.9-2-3.9
		c-2.3,0-2.3,0-2.3,0"/>
	<path fill="none" stroke="#000000" stroke-width="0.5" stroke-miterlimit="10" d="M313.7,65.3c0,0-0.4-3-2.9-3"/>
	<path fill="none" stroke="#000000" stroke-width="0.5" stroke-miterlimit="10" d="M336,15.4l4-3.5c0,0,0.9-0.5,2.4,0.7l1.7,1.9
		c1,1.6,0.4,2.4,0.4,2.4l-4,3.5"/>
	<path fill="none" stroke="#000000" stroke-width="0.5" stroke-miterlimit="10" d="M307.9,7l0-5.4c0,0,0.2-1,2.1-1.3l2.6,0
		c1.9,0.3,2.1,1.3,2.1,1.3l0,5.4"/>
	<path fill="none" stroke="#000000" stroke-width="0.5" stroke-miterlimit="10" d="M342.2,55.2l4.9,2.3c0,0,0.8,0.6,0.3,2.4
		l-1.1,2.3c-1.1,1.6-2.1,1.3-2.1,1.3l-4.9-2.3"/>
</g>
<g>
	<path fill="none" stroke="#000000" stroke-width="0.5" stroke-miterlimit="10" d="M334.6,426.5c0,0,14,26.5,8.2,67.4l-2.6,0.3v8.9
		l-3.3,7.4"/>
	<polyline fill="none" stroke="#000000" stroke-width="0.5" stroke-miterlimit="10" points="336.9,499.3 336.9,534.5 336.1,538 
		321.8,538 	"/>
	<path fill="none" stroke="#000000" stroke-width="0.5" stroke-miterlimit="10" d="M317.2,471.7c0,4.8,1.5,9.9,2,14.3
		c0.5,4.3,2.6,18.4,2.6,18.4v85.2c0,0-2.6,31.1-11,47.5"/>
	<line fill="none" stroke="#000000" stroke-width="0.5" stroke-miterlimit="10" x1="336.9" y1="534.5" x2="321.8" y2="534.5"/>
	<path fill="none" stroke="#000000" stroke-width="0.5" stroke-miterlimit="10" d="M311.1,421.7h7.9c0,0,3.5,28.5,1.5,35.9
		c-2,7.4-5.3,10.6-5.3,17.7H313v-4.9h-2.3"/>
	<path fill="none" stroke="#000000" stroke-width="0.5" stroke-miterlimit="10" d="M344.8,469.7l78.1-78.1v-5.9l-13-20.2h-3.6
		l-26.8,5.6h-33.9v-17.9l11-9.9v6.6l26.5-33.7v-4.6l-6.1-11h-7.7l-28.1,4.6L331,323.2l0.8,12.5v49.5c0,27.7-5.3,37.5-9.7,37.5
		c-3.4,0-5.9-11.4-6.9-16.7c-0.3-1.6-0.5-3.3-0.5-4.9v-16.7c0,0,0.3-26-2.4-34.4"/>
	<polyline fill="none" stroke="#000000" stroke-width="0.5" stroke-miterlimit="10" points="331.6,349.8 312,349.8 313.1,336 
		331.8,336 329.1,322.2 315.8,322.2 313.1,336.1 	"/>
	<line fill="none" stroke="#000000" stroke-width="0.5" stroke-miterlimit="10" x1="331.8" y1="339.9" x2="312.9" y2="339.9"/>
	<polyline fill="none" stroke="#000000" stroke-width="0.5" stroke-miterlimit="10" points="313.8,332.5 311.9,321.8 310.8,321.8 	
		"/>
	<path fill="none" stroke="#000000" stroke-width="0.5" stroke-miterlimit="10" d="M315.2,475.3h-3.3v3.1h5.2l-0.8-3.2
		C316.3,475.2,315.1,475.3,315.2,475.3z"/>
	<line fill="none" stroke="#000000" stroke-width="0.5" stroke-miterlimit="10" x1="310.7" y1="485.7" x2="319.3" y2="485.7"/>
	<polyline fill="none" stroke="#000000" stroke-width="0.5" stroke-miterlimit="10" points="314.8,485.6 314.8,491.3 310.8,491.3 	
		"/>
	<polyline fill="none" stroke="#000000" stroke-width="0.5" stroke-miterlimit="10" points="313.5,491.4 313.5,495.2 310.8,495.2 	
		"/>
	<polyline fill="none" stroke="#000000" stroke-width="0.5" stroke-miterlimit="10" points="312.4,485.7 312.4,482.9 310.9,482.9 	
		"/>
	<path fill="none" stroke="#000000" stroke-width="0.5" stroke-miterlimit="10" d="M311.2,567.6c0,0,5.5-1,5.5-6.4
		c0-5.4-0.4-46.6-0.4-46.6s-1-10.8-5.5-10.8"/>
	<path fill="none" stroke="#000000" stroke-width="0.5" stroke-miterlimit="10" d="M321.9,567.1h-3.8c0,0-2.7,4.7-7.1,4.7"/>
	<line fill="none" stroke="#000000" stroke-width="0.5" stroke-miterlimit="10" x1="321.7" y1="588.8" x2="310.8" y2="588.8"/>
	<line fill="none" stroke="#000000" stroke-width="0.5" stroke-miterlimit="10" x1="314.4" y1="628.5" x2="310.8" y2="628.5"/>
	<polygon fill="none" stroke="#000000" stroke-width="0.5" stroke-miterlimit="10" points="340,368.8 340,311.6 339.1,313.7 
		338.3,366.3 	"/>
	<line fill="none" stroke="#000000" stroke-width="0.5" stroke-miterlimit="10" x1="322.2" y1="335.5" x2="322.2" y2="322"/>
	<line fill="none" stroke="#000000" stroke-width="0.5" stroke-miterlimit="10" x1="320.2" y1="322.3" x2="319.3" y2="336"/>
	<path fill="none" stroke="#000000" stroke-width="0.5" stroke-miterlimit="10" d="M318,322.3c0,0.5-1.8,13.8-1.8,13.8"/>
	<line fill="none" stroke="#000000" stroke-width="0.5" stroke-miterlimit="10" x1="324.6" y1="322.3" x2="325.6" y2="336"/>
	<path fill="none" stroke="#000000" stroke-width="0.5" stroke-miterlimit="10" d="M326.8,322.3c0,0.5,1.8,13.8,1.8,13.8"/>
	<path fill="none" stroke="#000000" stroke-width="0.5" stroke-miterlimit="10" d="M286.9,426.5c0,0-14,26.5-8.2,67.4l2.6,0.3v8.9
		l3.3,7.4"/>
	<polyline fill="none" stroke="#000000" stroke-width="0.5" stroke-miterlimit="10" points="284.6,499.3 284.6,534.5 285.4,538 
		299.7,538 	"/>
	<path fill="none" stroke="#000000" stroke-width="0.5" stroke-miterlimit="10" d="M304.2,471.7c0,4.8-1.5,9.9-2,14.3
		c-0.5,4.3-2.6,18.4-2.6,18.4v85.2c0,0,2.6,31.1,11,47.5"/>
	<line fill="none" stroke="#000000" stroke-width="0.5" stroke-miterlimit="10" x1="284.6" y1="534.5" x2="299.7" y2="534.5"/>
	<path fill="none" stroke="#000000" stroke-width="0.5" stroke-miterlimit="10" d="M310.4,421.7h-7.9c0,0-3.5,28.5-1.5,35.9
		c2,7.4,5.3,10.6,5.3,17.7h2.1v-4.9h2.3"/>
	<path fill="none" stroke="#000000" stroke-width="0.5" stroke-miterlimit="10" d="M276.7,469.7l-78.1-78.1v-5.9l13-20.2h3.6
		l26.8,5.6h33.9v-17.9l-11-9.9v6.6l-26.5-33.7v-4.6l6.1-11h7.7l28.1,4.6l10.2,17.9l-0.8,12.5v49.5c0,27.7,5.3,37.5,9.7,37.5
		c3.4,0,5.9-11.4,6.9-16.7c0.3-1.6,0.5-3.3,0.5-4.9v-16.7c0,0-0.3-26,2.4-34.4"/>
	<polyline fill="none" stroke="#000000" stroke-width="0.5" stroke-miterlimit="10" points="289.8,349.8 309.5,349.8 308.3,336 
		289.7,336 292.4,322.2 305.7,322.2 308.3,336.1 	"/>
	<line fill="none" stroke="#000000" stroke-width="0.5" stroke-miterlimit="10" x1="289.7" y1="339.9" x2="308.6" y2="339.9"/>
	<polyline fill="none" stroke="#000000" stroke-width="0.5" stroke-miterlimit="10" points="307.7,332.5 309.6,321.8 310.6,321.8 	
		"/>
	<path fill="none" stroke="#000000" stroke-width="0.5" stroke-miterlimit="10" d="M306.3,475.3h3.3v3.1h-5.2l0.8-3.2
		C305.2,475.2,306.4,475.3,306.3,475.3z"/>
	<line fill="none" stroke="#000000" stroke-width="0.5" stroke-miterlimit="10" x1="310.8" y1="485.7" x2="302.1" y2="485.7"/>
	<polyline fill="none" stroke="#000000" stroke-width="0.5" stroke-miterlimit="10" points="306.7,485.6 306.7,491.3 310.7,491.3 	
		"/>
	<polyline fill="none" stroke="#000000" stroke-width="0.5" stroke-miterlimit="10" points="307.9,491.4 307.9,495.2 310.6,495.2 	
		"/>
	<polyline fill="none" stroke="#000000" stroke-width="0.5" stroke-miterlimit="10" points="309,485.7 309,482.9 310.6,482.9 	"/>
	<path fill="none" stroke="#000000" stroke-width="0.5" stroke-miterlimit="10" d="M310.2,567.6c0,0-5.5-1-5.5-6.4
		c0-5.4,0.4-46.6,0.4-46.6s1-10.8,5.5-10.8"/>
	<path fill="none" stroke="#000000" stroke-width="0.5" stroke-miterlimit="10" d="M299.5,567.1h3.8c0,0,2.7,4.7,7.1,4.7"/>
	<line fill="none" stroke="#000000" stroke-width="0.5" stroke-miterlimit="10" x1="299.8" y1="588.8" x2="310.6" y2="588.8"/>
	<line fill="none" stroke="#000000" stroke-width="0.5" stroke-miterlimit="10" x1="307.1" y1="628.5" x2="310.6" y2="628.5"/>
	<polygon fill="none" stroke="#000000" stroke-width="0.5" stroke-miterlimit="10" points="281.4,368.8 281.4,311.6 282.4,313.7 
		283.1,366.3 	"/>
	<line fill="none" stroke="#000000" stroke-width="0.5" stroke-miterlimit="10" x1="299.2" y1="335.5" x2="299.2" y2="322"/>
	<line fill="none" stroke="#000000" stroke-width="0.5" stroke-miterlimit="10" x1="301.3" y1="322.3" x2="302.2" y2="336"/>
	<path fill="none" stroke="#000000" stroke-width="0.5" stroke-miterlimit="10" d="M303.4,322.3c0,0.5,1.8,13.8,1.8,13.8"/>
	<line fill="none" stroke="#000000" stroke-width="0.5" stroke-miterlimit="10" x1="296.8" y1="322.3" x2="295.9" y2="336"/>
	<path fill="none" stroke="#000000" stroke-width="0.5" stroke-miterlimit="10" d="M294.7,322.3c0,0.5-1.8,13.8-1.8,13.8"/>
	
		<line opacity="0.25" fill="none" stroke="#010101" stroke-width="0.5" stroke-miterlimit="10" x1="409.3" y1="366" x2="409.3" y2="405"/>
	
		<line opacity="0.25" fill="none" stroke="#010101" stroke-width="0.5" stroke-miterlimit="10" x1="409.1" y1="397" x2="343.7" y2="458.6"/>
	
		<line opacity="0.25" fill="none" stroke="#010101" stroke-width="0.5" stroke-miterlimit="10" x1="409.3" y1="374.8" x2="379.7" y2="385.9"/>
	<polyline opacity="0.25" fill="none" stroke="#010101" stroke-width="0.5" stroke-miterlimit="10" points="409.3,384.1 380,399.3 
		336.8,409.4 310.8,409.4 	"/>
	
		<line opacity="0.25" fill="none" stroke="#010101" stroke-width="0.5" stroke-miterlimit="10" x1="380" y1="371.1" x2="380" y2="424.5"/>
	
		<line opacity="0.25" fill="none" stroke="#010101" stroke-width="0.5" stroke-miterlimit="10" x1="378.3" y1="322.7" x2="370.8" y2="300.7"/>
	
		<line opacity="0.25" fill="none" stroke="#010101" stroke-width="0.5" stroke-miterlimit="10" x1="373.3" y1="307.6" x2="342.1" y2="325.8"/>
	
		<line opacity="0.25" fill="none" stroke="#010101" stroke-width="0.5" stroke-miterlimit="10" x1="375.8" y1="315.4" x2="343.1" y2="347.8"/>
	<polyline opacity="0.25" fill="none" stroke="#010101" stroke-width="0.5" stroke-miterlimit="10" points="345.2,353.3 
		341.2,339.9 342.1,305.9 	"/>
	
		<line opacity="0.25" fill="none" stroke="#010101" stroke-width="0.5" stroke-miterlimit="10" x1="350" y1="340.9" x2="341.4" y2="334.6"/>
	
		<line opacity="0.25" fill="none" stroke="#010101" stroke-width="0.5" stroke-miterlimit="10" x1="379.7" y1="385.9" x2="311" y2="385.9"/>
	
		<line opacity="0.25" fill="none" stroke="#010101" stroke-width="0.5" stroke-miterlimit="10" x1="345.6" y1="370.9" x2="345.6" y2="385.9"/>
	
		<line opacity="0.25" fill="none" stroke="#010101" stroke-width="0.5" stroke-miterlimit="10" x1="380" y1="393.1" x2="338.7" y2="398.7"/>
	<polyline opacity="0.25" fill="none" stroke="#010101" stroke-width="0.5" stroke-miterlimit="10" points="360.5,404 360.5,387.6 
		353.8,387.6 353.8,396.8 	"/>
	
		<line opacity="0.25" fill="none" stroke="#010101" stroke-width="0.5" stroke-miterlimit="10" x1="341.6" y1="386.2" x2="336.8" y2="409.4"/>
	<polyline opacity="0.25" fill="none" stroke="#010101" stroke-width="0.5" stroke-miterlimit="10" points="345.4,398.1 345.4,391 
		340.8,391 	"/>
	<polyline opacity="0.25" fill="none" stroke="#010101" stroke-width="0.5" stroke-miterlimit="10" points="339.3,386.2 
		334.5,403.8 330.5,403.8 	"/>
	<polyline opacity="0.25" fill="none" stroke="#010101" stroke-width="0.5" stroke-miterlimit="10" points="374.9,393.9 374.9,388 
		369.7,388 369.7,394.7 	"/>
	
		<line opacity="0.25" fill="none" stroke="#010101" stroke-width="0.5" stroke-miterlimit="10" x1="396.7" y1="390.4" x2="393.6" y2="381.1"/>
	
		<line opacity="0.25" fill="none" stroke="#010101" stroke-width="0.5" stroke-miterlimit="10" x1="387.9" y1="395" x2="384.8" y2="384.3"/>
	
		<line opacity="0.25" fill="none" stroke="#010101" stroke-width="0.5" stroke-miterlimit="10" x1="336.2" y1="494.3" x2="320.3" y2="494.3"/>
	
		<line opacity="0.25" fill="none" stroke="#010101" stroke-width="0.5" stroke-miterlimit="10" x1="344.3" y1="470.2" x2="315.9" y2="470.2"/>
	
		<line opacity="0.25" fill="none" stroke="#010101" stroke-width="0.5" stroke-miterlimit="10" x1="343.3" y1="459.9" x2="320.1" y2="459.9"/>
	
		<line opacity="0.25" fill="none" stroke="#010101" stroke-width="0.5" stroke-miterlimit="10" x1="317.1" y1="467.4" x2="311" y2="414.4"/>
	
		<line opacity="0.25" fill="none" stroke="#010101" stroke-width="0.5" stroke-miterlimit="10" x1="314.8" y1="445.9" x2="314.8" y2="403.3"/>
	
		<line opacity="0.25" fill="none" stroke="#010101" stroke-width="0.5" stroke-miterlimit="10" x1="327.4" y1="485.5" x2="327.4" y2="417.6"/>
	<polyline opacity="0.25" fill="none" stroke="#010101" stroke-width="0.5" stroke-miterlimit="10" points="344.1,463.9 
		332.8,463.9 332.8,409.4 	"/>
	
		<line opacity="0.25" fill="none" stroke="#010101" stroke-width="0.5" stroke-miterlimit="10" x1="327.6" y1="440.6" x2="320.9" y2="440.6"/>
	
		<line opacity="0.25" fill="none" stroke="#010101" stroke-width="0.5" stroke-miterlimit="10" x1="331.2" y1="367.7" x2="314.8" y2="367.7"/>
	
		<rect x="319" y="394.1" opacity="0.25" fill="none" stroke="#010101" stroke-width="0.5" stroke-miterlimit="10" width="5" height="3.1"/>
	
		<line opacity="0.25" fill="none" stroke="#010101" stroke-width="0.5" stroke-miterlimit="10" x1="378.5" y1="436.4" x2="373.8" y2="431.7"/>
	
		<line opacity="0.25" fill="none" stroke="#010101" stroke-width="0.5" stroke-miterlimit="10" x1="349.4" y1="463.4" x2="344.7" y2="458.7"/>
	
		<line opacity="0.25" fill="none" stroke="#010101" stroke-width="0.5" stroke-miterlimit="10" x1="374.7" y1="432.9" x2="346.9" y2="460.7"/>
	
		<line opacity="0.25" fill="none" stroke="#010101" stroke-width="0.5" stroke-miterlimit="10" x1="404.9" y1="410" x2="404.9" y2="401.9"/>
	<polygon opacity="0.25" fill="none" stroke="#010101" stroke-width="0.5" stroke-miterlimit="10" points="325.1,485.5 333.2,485.5 
		333.2,489.2 333.2,494.5 325.1,494.5 	"/>
	
		<line opacity="0.25" fill="none" stroke="#010101" stroke-width="0.5" stroke-miterlimit="10" x1="325.5" y1="488.8" x2="332.9" y2="488.8"/>
	
		<line opacity="0.25" fill="none" stroke="#010101" stroke-width="0.5" stroke-miterlimit="10" x1="336.7" y1="510.4" x2="317.9" y2="510.4"/>
	
		<line opacity="0.25" fill="none" stroke="#010101" stroke-width="0.5" stroke-miterlimit="10" x1="336.8" y1="502.7" x2="321.4" y2="502.7"/>
	<polyline opacity="0.25" fill="none" stroke="#010101" stroke-width="0.5" stroke-miterlimit="10" points="321.8,585.9 
		317.5,585.9 319,567.1 	"/>
	
		<line opacity="0.25" fill="none" stroke="#010101" stroke-width="0.5" stroke-miterlimit="10" x1="318.3" y1="573.2" x2="310.8" y2="573.2"/>
	<polyline opacity="0.25" fill="none" stroke="#010101" stroke-width="0.5" stroke-miterlimit="10" points="310.7,578.2 314,578.2 
		314,584.8 310.7,584.8 	"/>
	
		<line opacity="0.25" fill="none" stroke="#010101" stroke-width="0.5" stroke-miterlimit="10" x1="212.2" y1="366" x2="212.2" y2="405"/>
	
		<line opacity="0.25" fill="none" stroke="#010101" stroke-width="0.5" stroke-miterlimit="10" x1="212.3" y1="397" x2="277.8" y2="458.6"/>
	
		<line opacity="0.25" fill="none" stroke="#010101" stroke-width="0.5" stroke-miterlimit="10" x1="212.2" y1="374.8" x2="241.8" y2="385.9"/>
	<polyline opacity="0.25" fill="none" stroke="#010101" stroke-width="0.5" stroke-miterlimit="10" points="212.2,384.1 
		241.4,399.3 284.7,409.4 310.7,409.4 	"/>
	
		<line opacity="0.25" fill="none" stroke="#010101" stroke-width="0.5" stroke-miterlimit="10" x1="241.4" y1="371.1" x2="241.4" y2="424.5"/>
	
		<line opacity="0.25" fill="none" stroke="#010101" stroke-width="0.5" stroke-miterlimit="10" x1="243.1" y1="322.7" x2="250.6" y2="300.7"/>
	
		<line opacity="0.25" fill="none" stroke="#010101" stroke-width="0.5" stroke-miterlimit="10" x1="248.1" y1="307.6" x2="279.3" y2="325.8"/>
	
		<line opacity="0.25" fill="none" stroke="#010101" stroke-width="0.5" stroke-miterlimit="10" x1="245.6" y1="315.4" x2="278.4" y2="347.8"/>
	<polyline opacity="0.25" fill="none" stroke="#010101" stroke-width="0.5" stroke-miterlimit="10" points="276.3,353.3 
		280.3,339.9 279.3,305.9 	"/>
	
		<line opacity="0.25" fill="none" stroke="#010101" stroke-width="0.5" stroke-miterlimit="10" x1="271.5" y1="340.9" x2="280.1" y2="334.6"/>
	
		<line opacity="0.25" fill="none" stroke="#010101" stroke-width="0.5" stroke-miterlimit="10" x1="241.8" y1="385.9" x2="310.5" y2="385.9"/>
	
		<line opacity="0.25" fill="none" stroke="#010101" stroke-width="0.5" stroke-miterlimit="10" x1="275.9" y1="370.9" x2="275.9" y2="385.9"/>
	
		<line opacity="0.25" fill="none" stroke="#010101" stroke-width="0.5" stroke-miterlimit="10" x1="241.4" y1="393.1" x2="282.8" y2="398.7"/>
	<polyline opacity="0.25" fill="none" stroke="#010101" stroke-width="0.5" stroke-miterlimit="10" points="260.9,404 260.9,387.6 
		267.6,387.6 267.6,396.8 	"/>
	
		<line opacity="0.25" fill="none" stroke="#010101" stroke-width="0.5" stroke-miterlimit="10" x1="279.9" y1="386.2" x2="284.7" y2="409.4"/>
	<polyline opacity="0.25" fill="none" stroke="#010101" stroke-width="0.5" stroke-miterlimit="10" points="276.1,398.1 276.1,391 
		280.7,391 	"/>
	<polyline opacity="0.25" fill="none" stroke="#010101" stroke-width="0.5" stroke-miterlimit="10" points="282.2,386.2 287,403.8 
		291,403.8 	"/>
	<polyline opacity="0.25" fill="none" stroke="#010101" stroke-width="0.5" stroke-miterlimit="10" points="246.6,393.9 246.6,388 
		251.8,388 251.8,394.7 	"/>
	
		<line opacity="0.25" fill="none" stroke="#010101" stroke-width="0.5" stroke-miterlimit="10" x1="224.8" y1="390.4" x2="227.8" y2="381.1"/>
	
		<line opacity="0.25" fill="none" stroke="#010101" stroke-width="0.5" stroke-miterlimit="10" x1="233.6" y1="395" x2="236.6" y2="384.3"/>
	
		<line opacity="0.25" fill="none" stroke="#010101" stroke-width="0.5" stroke-miterlimit="10" x1="285.2" y1="494.3" x2="301.1" y2="494.3"/>
	
		<line opacity="0.25" fill="none" stroke="#010101" stroke-width="0.5" stroke-miterlimit="10" x1="277.2" y1="470.2" x2="305.5" y2="470.2"/>
	
		<line opacity="0.25" fill="none" stroke="#010101" stroke-width="0.5" stroke-miterlimit="10" x1="278.2" y1="459.9" x2="301.3" y2="459.9"/>
	
		<line opacity="0.25" fill="none" stroke="#010101" stroke-width="0.5" stroke-miterlimit="10" x1="304.4" y1="467.4" x2="310.5" y2="414.4"/>
	
		<line opacity="0.25" fill="none" stroke="#010101" stroke-width="0.5" stroke-miterlimit="10" x1="306.7" y1="445.9" x2="306.7" y2="403.3"/>
	
		<line opacity="0.25" fill="none" stroke="#010101" stroke-width="0.5" stroke-miterlimit="10" x1="294" y1="485.5" x2="294" y2="417.6"/>
	<polyline opacity="0.25" fill="none" stroke="#010101" stroke-width="0.5" stroke-miterlimit="10" points="277.4,463.9 
		288.7,463.9 288.7,409.4 	"/>
	
		<line opacity="0.25" fill="none" stroke="#010101" stroke-width="0.5" stroke-miterlimit="10" x1="293.9" y1="440.6" x2="300.6" y2="440.6"/>
	
		<line opacity="0.25" fill="none" stroke="#010101" stroke-width="0.5" stroke-miterlimit="10" x1="290.2" y1="367.7" x2="306.7" y2="367.7"/>
	
		<rect x="297.5" y="394.1" opacity="0.25" fill="none" stroke="#010101" stroke-width="0.5" stroke-miterlimit="10" width="5" height="3.1"/>
	
		<line opacity="0.25" fill="none" stroke="#010101" stroke-width="0.5" stroke-miterlimit="10" x1="243" y1="436.4" x2="247.6" y2="431.7"/>
	
		<line opacity="0.25" fill="none" stroke="#010101" stroke-width="0.5" stroke-miterlimit="10" x1="272" y1="463.4" x2="276.7" y2="458.7"/>
	
		<line opacity="0.25" fill="none" stroke="#010101" stroke-width="0.5" stroke-miterlimit="10" x1="246.8" y1="432.9" x2="274.5" y2="460.7"/>
	
		<line opacity="0.25" fill="none" stroke="#010101" stroke-width="0.5" stroke-miterlimit="10" x1="216.6" y1="410" x2="216.6" y2="401.9"/>
	<polygon opacity="0.25" fill="none" stroke="#010101" stroke-width="0.5" stroke-miterlimit="10" points="296.3,485.5 288.3,485.5 
		288.3,489.2 288.3,494.5 296.3,494.5 	"/>
	
		<line opacity="0.25" fill="none" stroke="#010101" stroke-width="0.5" stroke-miterlimit="10" x1="296" y1="488.8" x2="288.5" y2="488.8"/>
	
		<line opacity="0.25" fill="none" stroke="#010101" stroke-width="0.5" stroke-miterlimit="10" x1="284.8" y1="510.4" x2="303.5" y2="510.4"/>
	
		<line opacity="0.25" fill="none" stroke="#010101" stroke-width="0.5" stroke-miterlimit="10" x1="284.6" y1="502.7" x2="300.1" y2="502.7"/>
	<polyline opacity="0.25" fill="none" stroke="#010101" stroke-width="0.5" stroke-miterlimit="10" points="299.7,585.9 304,585.9 
		302.5,567.1 	"/>
	
		<line opacity="0.25" fill="none" stroke="#010101" stroke-width="0.5" stroke-miterlimit="10" x1="303.1" y1="573.2" x2="310.7" y2="573.2"/>
	<polyline opacity="0.25" fill="none" stroke="#010101" stroke-width="0.5" stroke-miterlimit="10" points="310.8,578.2 
		307.4,578.2 307.4,584.8 310.8,584.8 	"/>
</g>
</svg>
